<svg width="48" height="48" viewBox="0 0 48 48" fill="none" xmlns="http://www.w3.org/2000/svg">
<g clip-path="url(#clip0_24_339)">
<path d="M24 39.7581C32.7029 39.7581 39.7581 32.7029 39.7581 24C39.7581 15.2971 32.7029 8.24194 24 8.24194C15.2971 8.24194 8.24194 15.2971 8.24194 24C8.24194 32.7029 15.2971 39.7581 24 39.7581Z" fill="#E58E1A"/>
<path d="M24 37.2699C31.3288 37.2699 37.2699 31.3288 37.2699 24C37.2699 16.6712 31.3288 10.7301 24 10.7301C16.6712 10.7301 10.7301 16.6712 10.7301 24C10.7301 31.3288 16.6712 37.2699 24 37.2699Z" fill="#E58E1A"/>
<path d="M30.635 20.6825C32.0091 20.6825 33.1231 19.5685 33.1231 18.1943C33.1231 16.8202 32.0091 15.7062 30.635 15.7062C29.2608 15.7062 28.1468 16.8202 28.1468 18.1943C28.1468 19.5685 29.2608 20.6825 30.635 20.6825Z" fill="#E58E1A"/>
<path d="M27.8795 30.4735C22.8767 29.6349 18.9153 25.5276 18.2864 20.4941C18.061 18.6901 18.258 16.9611 18.7846 15.3817C19.0444 14.6024 18.1506 13.9464 17.4715 14.4087C13.9912 16.7778 11.8642 20.9834 12.5011 25.6379C13.2064 30.7921 17.4214 34.9168 22.5877 35.5276C26.4911 35.989 30.0589 34.5081 32.4691 31.9287C33.0326 31.3256 32.5348 30.3351 31.721 30.4733C30.4973 30.6812 29.2083 30.6963 27.8795 30.4735Z" fill="#E58E1A"/>
<path d="M24 40.5356C33.1178 40.5356 40.5356 33.1179 40.5356 24C40.5356 14.8822 33.1178 7.46439 24 7.46439C14.8822 7.46439 7.46437 14.8822 7.46437 24C7.46437 33.1179 14.8822 40.5356 24 40.5356ZM24 9.01942C32.2603 9.01942 38.9806 15.7396 38.9806 24C38.9806 32.2604 32.2603 38.9806 24 38.9806C15.7397 38.9806 9.0194 32.2603 9.0194 24C9.0194 15.7397 15.7397 9.01942 24 9.01942Z" fill="black"/>
<path d="M18.9719 28.1987C18.9719 27.7693 18.6238 27.4211 18.1943 27.4211C17.7649 27.4211 17.4168 27.7692 17.4168 28.1987C17.4168 30.3039 19.9106 31.9847 23.2224 32.2142V33.1231C23.2224 33.5525 23.5705 33.9006 24 33.9006C24.4295 33.9006 24.7776 33.5526 24.7776 33.1231V32.2142C28.0894 31.9847 30.5832 30.3039 30.5832 28.1987C30.5832 25.3783 27.9015 24.2778 24.7776 23.4064V17.3444C27.318 17.5486 29.0281 18.7305 29.0281 19.8013C29.0281 20.2307 29.3762 20.5789 29.8057 20.5789C30.2351 20.5789 30.5832 20.2308 30.5832 19.8013C30.5832 17.6961 28.0894 16.0153 24.7776 15.7858V14.8769C24.7776 14.4475 24.4295 14.0993 24 14.0993C23.5705 14.0993 23.2224 14.4474 23.2224 14.8769V15.7858C19.9106 16.0153 17.4168 17.6961 17.4168 19.8013C17.4168 22.6217 20.0985 23.7222 23.2224 24.5936V30.6556C20.682 30.4514 18.9719 29.2695 18.9719 28.1987ZM29.0281 28.1987C29.0281 29.2695 27.318 30.4514 24.7776 30.6556V25.0259C27.9311 25.9578 29.0281 26.804 29.0281 28.1987ZM18.9719 19.8013C18.9719 18.7305 20.682 17.5486 23.2224 17.3444V22.9741C20.0689 22.0422 18.9719 21.196 18.9719 19.8013Z" fill="black"/>
<path d="M40.9705 7.02947C36.4376 2.49638 30.4106 0 24 0C17.0986 0 10.6547 2.90391 6.0976 8.01562L6.5235 5.03438C6.58416 4.60922 6.28875 4.21547 5.86369 4.15472C5.43844 4.09453 5.04479 4.38947 4.98404 4.81453L4.15463 10.6202C4.11657 10.8869 4.21932 11.1544 4.42613 11.3272C4.56807 11.4456 4.74488 11.5077 4.9245 11.5077C5.00682 11.5077 5.08988 11.4947 5.17032 11.4678L10.1466 9.80906C10.554 9.67322 10.7741 9.23297 10.6384 8.82553C10.5024 8.41809 10.0623 8.19778 9.65485 8.33372L7.15472 9.16716C11.4222 4.31447 17.4939 1.55503 24 1.55503C29.9952 1.55503 35.6317 3.88969 39.871 8.12897C44.1103 12.3683 46.445 18.0048 46.445 24C46.445 29.9952 44.1103 35.6317 39.871 39.871C35.6317 44.1103 29.9953 46.445 24 46.445C23.5706 46.445 23.2224 46.7931 23.2224 47.2225C23.2224 47.652 23.5706 48 24 48C30.4106 48 36.4376 45.5036 40.9705 40.9705C45.5034 36.4374 48 30.4106 48 24C48 17.5894 45.5036 11.5624 40.9705 7.02947Z" fill="black"/>
<path d="M20.7927 46.2175C20.5283 46.1797 20.2621 46.1368 20.0014 46.09C19.5786 46.0137 19.1745 46.2949 19.0985 46.7176C19.0224 47.1402 19.3034 47.5445 19.7261 47.6205C20.0051 47.6707 20.2899 47.7166 20.5725 47.757C20.6098 47.7624 20.6469 47.765 20.6836 47.765C21.0642 47.765 21.3968 47.4851 21.4523 47.0976C21.513 46.6723 21.2178 46.2785 20.7927 46.2175Z" fill="black"/>
<path d="M16.9926 45.3296C16.5031 45.1689 16.0128 44.9888 15.5351 44.7941C15.1376 44.6323 14.6838 44.8231 14.5216 45.2209C14.3596 45.6186 14.5507 46.0723 14.9483 46.2344C15.4594 46.4425 15.9839 46.6353 16.5076 46.8072C16.5881 46.8337 16.6699 46.8462 16.7503 46.8462C17.0771 46.8462 17.3813 46.6385 17.489 46.311C17.6227 45.9028 17.4006 45.4636 16.9926 45.3296Z" fill="black"/>
<path d="M2.07113 28.8084C1.96135 28.3052 1.86779 27.7914 1.79307 27.2814C1.73073 26.8565 1.33623 26.5628 0.911164 26.6248C0.486195 26.687 0.192195 27.0819 0.254539 27.5067C0.334507 28.0521 0.434445 28.6016 0.551913 29.1398C0.63132 29.5036 0.953257 29.7518 1.31082 29.7518C1.36576 29.7518 1.42154 29.746 1.47732 29.7338C1.89676 29.6422 2.16273 29.228 2.07113 28.8084Z" fill="black"/>
<path d="M1.07944 20.1648C1.13119 20.1752 1.18257 20.1801 1.23338 20.1801C1.5961 20.1801 1.92075 19.9249 1.99482 19.5556C2.09635 19.0501 2.217 18.5418 2.35332 18.045C2.46694 17.6309 2.22338 17.2031 1.80929 17.0895C1.39557 16.9759 0.96741 17.2195 0.853785 17.6337C0.70791 18.165 0.57891 18.7086 0.470348 19.2494C0.385692 19.6703 0.65841 20.0803 1.07944 20.1648Z" fill="black"/>
<path d="M3.53044 33.2211C3.31856 32.7516 3.12056 32.2686 2.94188 31.7856C2.79291 31.3828 2.34553 31.177 1.94288 31.3261C1.54013 31.4751 1.33444 31.9223 1.48341 32.3251C1.67447 32.8417 1.88625 33.3583 2.11294 33.8607C2.24278 34.1484 2.52572 34.3186 2.82216 34.3186C2.92903 34.3186 3.03769 34.2964 3.14147 34.2496C3.53297 34.073 3.70697 33.6125 3.53044 33.2211Z" fill="black"/>
<path d="M0.7845 24.9707C1.21388 24.9673 1.55925 24.6164 1.55588 24.187C1.55531 24.1245 1.55503 24.062 1.55503 24C1.55503 23.5453 1.56881 23.0857 1.59591 22.6336C1.62169 22.2049 1.29506 21.8365 0.866344 21.8108C0.437156 21.7848 0.0692813 22.1117 0.0435937 22.5404C0.0147188 23.0233 0 23.5144 0 24.0007C0 24.0669 0.00028125 24.1331 0.00084375 24.1993C0.00421875 24.6266 0.351656 24.9707 0.778313 24.9707C0.780187 24.9707 0.782438 24.9707 0.7845 24.9707Z" fill="black"/>
<path d="M12.7495 43.4261C12.3042 43.1676 11.8617 42.89 11.4342 42.6006C11.0785 42.36 10.5952 42.4531 10.3545 42.8087C10.1138 43.1644 10.2069 43.6476 10.5625 43.8884C11.0196 44.1978 11.4927 44.4947 11.9689 44.7711C12.0917 44.8424 12.2258 44.8762 12.3585 44.8762C12.6266 44.8762 12.8874 44.7374 13.0317 44.4889C13.2473 44.1176 13.121 43.6417 12.7495 43.4261Z" fill="black"/>
<path d="M4.99912 35.9533C4.77019 35.5901 4.29009 35.4811 3.92672 35.7103C3.56344 35.9394 3.45469 36.4195 3.68372 36.7827C3.97762 37.249 4.2915 37.7107 4.61672 38.1553C4.76897 38.3635 5.00541 38.4738 5.24484 38.4738C5.40422 38.4738 5.56491 38.425 5.70328 38.3238C6.04987 38.0702 6.12534 37.5838 5.87175 37.2372C5.56772 36.8213 5.27409 36.3895 4.99912 35.9533Z" fill="black"/>
<path d="M8.99006 40.688C8.6069 40.3431 8.23078 39.9804 7.87218 39.6101C7.57349 39.3016 7.0814 39.2936 6.77277 39.5924C6.46424 39.8911 6.45628 40.3833 6.75506 40.6918C7.13831 41.0877 7.54031 41.4754 7.94981 41.8439C8.09849 41.9777 8.28449 42.0435 8.46974 42.0435C8.68246 42.0435 8.89434 41.9567 9.0479 41.7861C9.33515 41.4668 9.30918 40.9752 8.99006 40.688Z" fill="black"/>
<path d="M2.36193 15.516C2.46243 15.5593 2.56696 15.58 2.66981 15.58C2.97065 15.58 3.25724 15.4043 3.38399 15.1105C3.48937 14.8666 3.60056 14.6211 3.71474 14.3809C3.89896 13.9929 3.73396 13.5293 3.34612 13.3449C2.95809 13.1606 2.49431 13.3258 2.31009 13.7135C2.18803 13.9704 2.06906 14.2329 1.95637 14.4939C1.78612 14.8881 1.96771 15.3457 2.36193 15.516Z" fill="black"/>
</g>
<defs>
<clipPath id="clip0_24_339">
<rect width="48" height="48" fill="white"/>
</clipPath>
</defs>
</svg>
