<svg width="48" height="48" viewBox="0 0 48 48" fill="none" xmlns="http://www.w3.org/2000/svg">
<path d="M5.5042 41.251H42.5V28.1532" stroke="#5B1400" stroke-linecap="round" stroke-linejoin="round"/>
<path d="M7.4343 37.6884L22.4235 22.6993L27.5315 27.8074L42.5 12.839V23.895" stroke="#5B1400" stroke-linecap="round" stroke-linejoin="round"/>
<path d="M31.3588 12.839H42.5" stroke="#5B1400" stroke-linecap="round" stroke-linejoin="round"/>
<path d="M16.4486 12.4019H7.6809C6.47642 12.4019 5.5 13.3783 5.5 14.5828V21.5792C5.5 22.7837 6.47642 23.7601 7.6809 23.7601H16.4486C17.6531 23.7601 18.6295 22.7837 18.6295 21.5792V14.5828C18.6295 13.3783 17.6531 12.4019 16.4486 12.4019Z" stroke="#5B1400" stroke-linecap="round" stroke-linejoin="round"/>
<path d="M8.562 16.1879H18.6291" stroke="#5B1400" stroke-linecap="round" stroke-linejoin="round"/>
<path d="M5.5 19.974H15.5671" stroke="#5B1400" stroke-linecap="round" stroke-linejoin="round"/>
<path d="M12.0558 10.4294C13.0721 10.4294 13.896 9.60554 13.896 8.58922C13.896 7.57291 13.0721 6.74902 12.0558 6.74902C11.0395 6.74902 10.2156 7.57291 10.2156 8.58922C10.2156 9.60554 11.0395 10.4294 12.0558 10.4294Z" stroke="#5B1400" stroke-linecap="round" stroke-linejoin="round"/>
</svg>
