<svg width="48" height="48" viewBox="0 0 48 48" fill="none" xmlns="http://www.w3.org/2000/svg">
<path d="M24 4.07812C12.9975 4.07812 4.07812 12.9975 4.07812 24C4.07812 35.0025 12.9975 43.9219 24 43.9219C35.0025 43.9219 43.9219 35.0025 43.9219 24C43.9219 12.9975 35.0025 4.07812 24 4.07812ZM35.5134 20.8988L23.4263 32.9869C22.6809 33.7322 21.69 34.1428 20.6362 34.1428C19.5825 34.1428 18.5916 33.7322 17.8463 32.9869L12.4866 27.6272C11.7084 26.8491 11.28 25.8131 11.28 24.7106C11.28 23.6081 11.7084 22.5722 12.4866 21.7941C13.2656 21.015 14.3016 20.5856 15.4031 20.5856C16.5047 20.5856 17.5406 21.015 18.3197 21.7941L20.6362 24.1097L29.6803 15.0656C30.4594 14.2866 31.4953 13.8572 32.5969 13.8572C33.6984 13.8572 34.7344 14.2866 35.5134 15.0656C36.2916 15.8438 36.72 16.8797 36.72 17.9822C36.72 19.0847 36.2916 20.1206 35.5134 20.8988Z" fill="#5B1400"/>
</svg>
