<svg width="491" height="56" viewBox="0 0 491 56" fill="none" xmlns="http://www.w3.org/2000/svg">
<g clip-path="url(#clip0_24_219)">
<path fill-rule="evenodd" clip-rule="evenodd" d="M24.9402 28.1797C25.0396 27.0174 25.9021 25.8926 27.0751 25.4958C28.1592 25.1292 30.2731 25.4695 31.0015 25.9461C30.9719 25.9844 30.9788 25.9795 30.9178 26.0334L30.6157 26.2436C30.4636 26.3504 30.3742 26.4262 30.233 26.5448C28.9952 27.5832 29.3413 28.2151 28.6846 28.9833C27.8997 29.9015 25.6425 30.1513 24.7423 29.1373C24.7365 28.6088 25.7752 27.8803 26.1537 27.5949C26.5567 27.2911 27.5082 26.6691 28.0102 26.5353C27.4037 26.5295 26.1252 27.1972 25.5745 27.6414C25.3243 27.8434 25.1835 28.0326 24.9402 28.1797ZM23.8165 27.7487C23.7898 27.9972 23.7629 28.3379 23.6319 28.5019C23.73 29.296 23.5843 30.5031 23.6263 31.4057C23.6675 32.2896 23.9154 33.1467 24.1846 33.8451C24.5291 34.7391 25.2356 35.9128 25.8318 36.6443L26.5254 37.4282C26.7454 36.2422 26.5979 36.1587 27.1203 34.7136C27.487 33.6989 27.6681 33.1992 28.6218 32.8549C29.4918 32.5407 30.755 32.7784 31.5594 33.027C32.7755 33.4029 34.2494 34.3751 35.3491 34.1683C37.6069 33.7439 36.3963 31.7968 36.1861 31.0755C35.5126 28.7651 38.0676 29.0172 38.0105 28.1174C37.9842 27.7021 37.3664 27.7084 37.1581 27.2568C37.1828 26.3988 38.907 26.726 38.465 25.4902C38.0891 24.4391 37.6293 24.287 38.7942 23.3683C39.6282 22.7105 40.4282 22.4347 40.0766 21.6036C39.6528 20.602 38.3227 19.8087 37.6702 19.162C36.741 18.2408 36.0418 17.2847 36.5015 15.7156C37.0275 13.9202 36.8533 11.6984 36.3465 10.0019C35.4066 6.85486 33.0911 4.03088 30.8417 2.57591C28.3236 0.947225 23.4561 -0.018961 20.403 0.0274806L22.2029 0.894527C23.4241 1.51907 24.4771 2.24564 25.4757 3.09411L26.8682 4.43513L28.0222 5.96104C28.3962 6.51134 28.7029 7.08324 28.992 7.72514C29.562 8.99125 29.9688 10.5425 30.0224 12.1548C30.1197 15.0868 28.7489 18.5825 27.5873 20.5946L25.5792 24.0573C25.242 24.6717 24.9747 25.2237 24.6878 25.8979C24.4922 26.3578 24.1262 27.5011 23.8165 27.7487Z" fill="#5B1400"/>
<path fill-rule="evenodd" clip-rule="evenodd" d="M23.632 28.502C23.763 28.338 23.7899 27.9973 23.8165 27.7488C23.5946 27.4857 23.8025 27.2575 23.2899 26.7056C22.9621 26.3526 22.7014 26.3832 22.6219 25.78C22.4992 24.8489 22.15 24.15 21.7005 23.5088C21.2009 22.7961 20.7677 22.4131 20.1287 21.8891C19.8399 21.6523 19.5423 21.4433 19.2017 21.2195C18.9843 21.0765 18.294 20.7197 18.175 20.5881C19.2373 20.7009 21.0198 21.7831 21.7675 22.6432C22.9751 24.0325 22.8649 24.7673 23.3553 25.9569C23.5676 26.4718 23.4504 26.3406 23.6722 26.4211C23.8352 25.8166 23.9698 24.7501 23.9886 24.0676C24.0489 21.8857 22.5449 20.2531 20.9231 19.1005C18.0709 17.0734 15.8791 17.3966 12.1326 18.0275C12.6943 18.4456 13.016 18.5211 13.5895 19.3098C13.9644 19.8256 14.2696 20.4342 14.546 21.0881C14.8252 21.749 15.0631 22.3959 15.3012 23.0714C16.0483 25.1903 16.3779 26.6887 19.2178 27.4171C19.9632 27.6082 20.8704 27.6753 21.7134 27.662C22.72 27.6462 23.5164 27.4645 23.632 28.502Z" fill="#E58E1A"/>
<path fill-rule="evenodd" clip-rule="evenodd" d="M0.265567 40.4581C0.283941 40.7669 0.200008 40.689 1.09855 40.8109L1.69294 40.8924L1.38494 47.2691C1.32396 48.1744 1.1419 47.896 0.425824 48.0337C0.209231 48.0753 0.141115 48.0639 0.101135 48.2848C0.458735 48.4756 1.05218 48.2545 1.48328 48.2814L3.08302 48.3523C3.3334 48.3487 3.20182 48.4128 3.35871 48.2848C3.25297 47.79 2.21302 48.3389 1.9483 47.8192C1.61419 47.1632 1.91996 42.3741 1.97253 41.4736C2.2674 41.6047 4.01953 45.7683 4.33472 46.5731C4.46328 46.9014 4.88065 48.2143 5.07335 48.3682C5.24666 48.2318 5.65461 46.999 5.77603 46.7083C6.01207 46.1434 6.2395 45.5841 6.46801 45.0082C6.63318 44.5922 7.78426 41.8168 7.91921 41.664C8.08471 42.617 7.90043 44.7038 7.92553 45.7774C7.93119 46.0198 8.00866 47.5543 7.90507 47.7883C7.54902 48.1636 6.79795 47.8962 6.74861 48.3244C6.91984 48.4235 8.18291 48.3382 8.54953 48.338C8.94846 48.3378 10.092 48.4633 10.3644 48.3417C10.3272 47.7939 8.96522 48.4085 8.96502 47.43L8.91763 41.9593C8.91763 41.4799 8.82367 41.0028 9.24919 40.9005C9.67268 40.7986 10.29 40.9823 10.3581 40.5451C10.1854 40.4751 8.31362 40.4737 8.03753 40.4657C7.87573 40.6717 5.91246 46.1231 5.41352 46.5659L3.22127 41.7015C2.79885 40.7495 2.83082 40.4606 2.34305 40.45C2.1029 40.4447 1.83825 40.4669 1.59723 40.4765C1.32619 40.4873 0.380997 40.3874 0.265567 40.4581Z" fill="#4C1363"/>
<path fill-rule="evenodd" clip-rule="evenodd" d="M24.9403 28.1797C25.1835 28.0326 25.3243 27.8434 25.5746 27.6415C26.1252 27.1972 27.4037 26.5295 28.0103 26.5353C27.5083 26.6692 26.5567 27.2911 26.1537 27.5949C25.7752 27.8803 24.7365 28.6089 24.7424 29.1374C25.6426 30.1513 27.8997 29.9016 28.6847 28.9834C29.3414 28.2151 28.9952 27.5832 30.2331 26.5448C30.3743 26.4262 30.4637 26.3504 30.6157 26.2436L30.9178 26.0334C30.9789 25.9795 30.972 25.9844 31.0016 25.9461C30.2731 25.4695 28.1592 25.1292 27.0752 25.4959C25.9022 25.8926 25.0397 27.0175 24.9403 28.1797Z" fill="#E58E1A"/>
<path fill-rule="evenodd" clip-rule="evenodd" d="M15.9466 44.1248C16.135 44.4497 16.5577 44.1021 16.6268 44.6514C16.684 45.1057 16.6828 47.196 16.6283 47.5951C16.5434 48.217 15.9394 47.8188 15.7905 48.2278C15.9558 48.3543 16.8582 48.2806 17.07 48.2649C17.4642 48.2355 18.0582 48.39 18.3681 48.2278C18.3064 48.0007 18.2376 48.0095 17.9852 47.9679C17.4263 47.8757 17.4185 47.8843 17.4183 46.8602L17.4179 45.5495C17.4179 44.9185 17.2722 44.7045 17.7241 44.3524C17.9761 44.1559 18.4045 43.9348 18.8074 43.893C20.2542 43.7429 20.0974 45.3576 20.0749 46.6322L20.0352 47.7648C19.7384 48.0189 19.4198 47.9534 19.2382 48.0334C18.9599 48.1559 19.145 47.9976 19.0751 48.2278C19.2611 48.3596 20.7762 48.2616 21.3733 48.2963L21.7502 48.2528C21.7635 48.2478 21.7831 48.2383 21.7976 48.2278C21.7016 47.8204 21.4526 48.0887 21.0719 47.8996C20.7546 47.7419 20.8626 46.9229 20.8628 46.3473L20.8698 45.0349C20.8656 44.5553 20.8447 44.5715 21.1154 44.3251C22.124 43.4065 23.3906 43.7666 23.4799 44.8682C23.5282 45.4638 23.5251 46.1886 23.5241 46.8032C23.522 47.9025 23.533 47.893 22.923 48.0193C22.6993 48.0656 22.5894 48.0692 22.595 48.315C23.2466 48.426 23.6204 48.2073 24.4111 48.3189C24.5591 48.3398 24.9123 48.3919 25.0139 48.2675C25.1946 47.9139 24.442 48.1177 24.3108 47.7395C24.0216 46.9057 24.9018 43.9337 23.3476 43.3408C22.0581 42.849 21.1802 43.9664 20.7998 44.1687C20.4464 43.5646 20.086 43.1637 19.0958 43.2842C18.7155 43.3305 18.4514 43.4734 18.1668 43.6554C17.934 43.8042 17.5904 44.1354 17.3909 44.1877L17.384 43.0975C16.8779 43.0771 16.9313 43.5911 16.3252 43.8623C16.2663 43.8886 16.1509 43.9273 16.1208 43.9435C15.8467 44.0907 16.0246 43.9154 15.9466 44.1248Z" fill="#4C1363"/>
<path fill-rule="evenodd" clip-rule="evenodd" d="M30.6136 40.5369C30.648 40.8229 30.6867 40.681 31.3561 40.8584C31.676 40.9432 31.8763 41.0376 31.8999 41.3918C31.9521 42.1718 32.028 47.7767 31.9272 47.9429C31.8176 48.1234 31.3046 48.1465 31.1179 48.1845C30.8969 48.2295 30.9544 48.191 30.892 48.3417L31.0147 48.3853C31.3783 48.4384 32.9752 48.3527 33.568 48.394C33.8727 48.4153 34.1839 48.5191 34.3547 48.3417C34.2349 48.1213 33.4854 48.0263 33.0637 47.9269L32.9378 40.8227C34.4596 40.516 35.7667 41.0383 35.9978 42.429C36.1747 43.4928 35.5399 44.3831 34.5409 44.5818C34.041 44.6813 33.8337 44.4783 33.4598 44.5383C33.7548 45.2045 35.4529 45.199 36.272 44.4934C37.0449 43.8276 37.3726 42.7567 36.881 41.6652C36.4518 40.7122 35.6209 40.3633 34.3078 40.3604C33.7512 40.3591 33.064 40.4327 32.4839 40.4695C32.0729 40.4955 30.8428 40.4162 30.6136 40.5369Z" fill="#4C1363"/>
<path fill-rule="evenodd" clip-rule="evenodd" d="M13.6621 45.7967C13.7126 46.1174 13.6893 46.4787 13.6737 46.8044C13.6497 47.3061 13.6996 47.297 13.3893 47.5393C13.1157 47.7531 12.4274 48.249 12.0231 47.8314C11.3119 47.0969 13.1392 45.8827 13.6621 45.7967ZM10.8972 45.2553C11.9766 45.7225 11.4253 44.2641 12.4237 43.7822C12.8613 43.5709 13.3531 43.6883 13.5458 44.0301C13.7431 44.38 13.7159 45.0542 13.6776 45.5033C12.6459 45.9308 11.5305 46.3857 11.0944 47.4106C10.7651 48.1845 11.3182 48.5475 12.1111 48.4322C12.8169 48.3297 13.1587 47.9323 13.6213 47.6802C13.7559 47.8656 13.7236 48.5469 14.6435 48.4556C15.0312 48.4172 15.5059 47.9199 15.4797 47.5075C15.1914 47.5097 15.3213 47.6259 15.1004 47.7715C14.9136 47.8947 14.6643 47.8739 14.5448 47.7062C14.4107 47.5181 14.4646 46.6572 14.4634 46.3471C14.4601 45.5508 14.648 44.304 14.2279 43.7476C13.6385 42.9668 12.0172 43.2185 11.316 44.2692C11.1577 44.5062 10.8449 44.9349 10.8972 45.2553Z" fill="#4C1363"/>
<path fill-rule="evenodd" clip-rule="evenodd" d="M50.0763 45.7944C50.1344 46.326 50.1928 47.2182 49.8384 47.5171C49.5753 47.739 48.8952 48.2268 48.4668 47.8587C47.7401 47.2343 49.2688 45.9785 50.0763 45.7944ZM50.0992 45.4229C49.8517 45.7908 48.1649 45.9498 47.5099 47.411C47.1529 48.2075 47.7399 48.5397 48.5238 48.4295C49.3422 48.3145 49.5032 47.9306 50.0355 47.6678C50.1565 47.8537 50.1212 48.0786 50.2957 48.2514C50.8263 48.7771 51.9298 48.2675 51.8681 47.4917C51.5518 47.572 51.562 47.9446 51.1339 47.825C50.8122 47.7352 50.8852 47.3479 50.8879 46.9741C50.8934 46.2333 50.8831 45.4916 50.889 44.7507C50.9045 42.8105 49.0045 43.1754 48.2607 43.7187C47.9898 43.9166 47.408 44.5869 47.3193 45.0076C47.2289 45.4364 47.7372 45.3706 47.9339 45.2162C48.1508 45.0458 48.1611 44.672 48.2602 44.403C48.5603 43.5879 49.8834 43.2496 50.0775 44.4264C50.1276 44.7299 50.2104 45.1476 50.0992 45.4229Z" fill="#4C1363"/>
<path fill-rule="evenodd" clip-rule="evenodd" d="M28.4762 45.7945C28.5236 46.3425 28.599 47.2173 28.2365 47.5128C27.9617 47.7368 27.2611 48.2572 26.8387 47.834C26.1199 47.114 27.9093 45.8738 28.4762 45.7945ZM28.5012 45.49C27.6303 45.8718 26.3384 46.3433 25.904 47.403C25.5536 48.2575 26.1533 48.5308 26.9254 48.428C27.6998 48.3249 27.9304 47.9294 28.4378 47.6674C28.56 47.8661 28.4922 48.0396 28.6985 48.251C29.209 48.7744 30.333 48.2771 30.259 47.4968C29.9276 47.5477 29.9941 47.951 29.5368 47.8286C29.2011 47.7388 29.2721 47.3587 29.2739 46.9742C29.2772 46.2332 29.2702 45.4919 29.2745 44.751C29.288 42.4246 26.3435 43.1175 25.7248 44.9576C25.5652 45.4321 26.0727 45.3908 26.2973 45.2335C26.5445 45.0603 26.5315 44.7548 26.6449 44.4386C26.8152 43.964 27.3823 43.4612 28.0248 43.7432C28.5508 43.974 28.5637 44.8131 28.5012 45.49Z" fill="#4C1363"/>
<path fill-rule="evenodd" clip-rule="evenodd" d="M38.5128 44.8657C38.5293 44.2244 39.1057 43.7023 39.7012 43.589C40.4215 43.4519 41.1706 43.8741 41.0098 44.6739C40.7172 44.8467 39.0208 44.8775 38.5128 44.8657ZM41.9512 47.132C41.6727 47.2634 40.6789 48.3654 39.372 47.6064C38.418 47.0523 38.0731 45.3554 38.5332 45.1507C38.5548 45.1411 38.6949 45.1035 38.7122 45.101L40.063 45.0929C40.6726 45.096 41.2922 45.1072 41.9007 45.0888C41.9547 44.4347 41.5448 43.9107 41.2082 43.6631C39.9129 42.7106 37.7496 43.4943 37.5544 45.7747C37.4391 47.1217 38.1405 48.1729 39.1923 48.4152C40.1033 48.625 40.9753 48.3776 41.6295 47.7999C41.8645 47.5924 42.0416 47.4861 41.9512 47.132Z" fill="#4C1363"/>
<path fill-rule="evenodd" clip-rule="evenodd" d="M43.0833 46.8013C42.9464 46.9588 43.0178 47.2492 43.0417 47.4532C43.0681 47.6796 43.0605 48.0056 43.129 48.174C43.2778 48.4339 44.9977 48.9059 45.8774 48.0583C46.6683 47.2964 46.3546 46.1806 45.5058 45.6906C44.8841 45.3317 43.2382 45.0026 43.7964 43.9271C44.0898 43.3616 45.1161 43.2991 45.7289 44.4426C45.8668 44.6999 45.7344 44.6235 45.9896 44.6408C46.0882 44.4326 46.0268 44.0218 45.998 43.7753C45.972 43.5538 46.0075 43.5434 45.8183 43.4411C45.038 43.0194 42.7124 43.1456 43.0075 44.8669C43.1969 45.9712 44.6505 45.983 45.3387 46.5993C45.6798 46.9048 45.9514 47.6116 45.4325 48.0137C44.9758 48.3676 44.4327 48.3428 43.9519 47.9856C43.2101 47.4344 43.4261 46.9273 43.0833 46.8013Z" fill="#4C1363"/>
<path d="M2.95103 52.3441C2.97809 52.448 3.00421 52.5938 3.03032 52.7819C3.02608 52.789 3.02083 52.7928 3.01558 52.7928C3.00946 52.7928 3.00232 52.789 2.99519 52.7814C2.93111 52.6784 2.8698 52.6 2.81144 52.5459C2.75302 52.4922 2.69412 52.4538 2.63523 52.4309C2.57634 52.4082 2.47517 52.3968 2.33127 52.3968C2.19552 52.3968 2.08863 52.4048 2.00982 52.4205C2.00221 52.4295 1.99844 52.4466 1.99844 52.4718C1.99844 52.4785 1.99743 52.4898 1.99555 52.5065C1.98653 52.581 1.98182 52.7823 1.98182 53.1105C1.98182 53.1243 1.98276 53.1438 1.98464 53.1689C2.05538 53.1718 2.10337 53.1732 2.12949 53.1732C2.2468 53.1732 2.33128 53.1556 2.38404 53.121C2.43627 53.0863 2.48231 53.0113 2.52128 52.8964C2.5274 52.8769 2.53595 52.8669 2.54692 52.8669C2.56355 52.8669 2.57163 52.8802 2.57163 52.9073L2.56685 52.9628C2.56065 53.036 2.55736 53.1115 2.55736 53.1889C2.55736 53.3147 2.55924 53.4282 2.56308 53.5294C2.56308 53.5607 2.55453 53.5764 2.53791 53.5764C2.52552 53.5764 2.51698 53.5655 2.51273 53.5431C2.49322 53.4339 2.45243 53.3551 2.39017 53.3067C2.32845 53.2587 2.19357 53.2344 1.98606 53.2344C1.98323 53.3024 1.98182 53.4116 1.98182 53.5631C1.98182 53.7592 1.98889 53.8836 2.00268 53.9363C2.01648 53.9895 2.04973 54.0313 2.1029 54.0627C2.1556 54.0936 2.24485 54.1092 2.37119 54.1092C2.73161 54.1092 2.96429 53.9848 3.06882 53.7364C3.08161 53.7055 3.09446 53.6903 3.1082 53.6903C3.12294 53.6903 3.13007 53.7003 3.13007 53.7207C3.13007 53.7321 3.12771 53.744 3.12293 53.7573C3.11768 53.7749 3.10395 53.8404 3.08255 53.9548C3.07831 53.9791 3.06027 54.0513 3.02985 54.1719L2.44623 54.1704C2.36264 54.1704 2.23967 54.1667 2.07773 54.1595C1.91579 54.1524 1.77236 54.1491 1.64751 54.1486C1.52258 54.1481 1.45703 54.1453 1.45185 54.141C1.44613 54.1363 1.4433 54.131 1.4433 54.1253C1.4433 54.1068 1.45844 54.0978 1.48934 54.0978C1.59285 54.0978 1.66076 54.0703 1.69354 54.0156C1.72632 53.961 1.74247 53.828 1.74247 53.6168L1.741 53.3318L1.7453 53.0649C1.7453 53.0113 1.742 52.9096 1.73628 52.7596C1.73009 52.61 1.72444 52.5245 1.71966 52.5032C1.71441 52.4818 1.69974 52.4609 1.67645 52.44C1.65269 52.4191 1.60046 52.3982 1.51929 52.3768C1.49506 52.3702 1.48314 52.3597 1.48314 52.3455C1.48314 52.3284 1.4993 52.3198 1.53208 52.3198L1.81604 52.3355C1.91626 52.3403 2.16274 52.3426 2.55547 52.3426C2.81379 52.3426 2.94531 52.3431 2.95103 52.3441Z" fill="#4C1363"/>
<path d="M3.7308 52.2429C3.73369 52.3598 3.73605 52.4761 3.73793 52.5929L3.7351 53.4581L3.73793 53.8775C3.73793 53.9568 3.74937 54.0142 3.77212 54.0494C3.79447 54.085 3.8434 54.1054 3.91838 54.1121C3.94833 54.1149 3.96307 54.1244 3.96307 54.1401C3.96307 54.1562 3.95116 54.1648 3.92693 54.1648C3.9208 54.1648 3.91273 54.1643 3.90324 54.1634C3.8082 54.1539 3.69472 54.1491 3.56273 54.1491C3.48196 54.1491 3.41741 54.1533 3.36848 54.1619C3.35852 54.1629 3.34903 54.1634 3.34096 54.1634C3.31296 54.1634 3.29916 54.1548 3.29916 54.1377C3.29916 54.1216 3.31147 54.113 3.33665 54.1121C3.42024 54.1111 3.47584 54.0869 3.50195 54.0389C3.52807 53.9915 3.54133 53.9112 3.54133 53.7991L3.53709 53.0056C3.53615 52.7506 3.53278 52.5982 3.52665 52.5483C3.52093 52.4989 3.50148 52.4571 3.46917 52.4238C3.43687 52.3906 3.39177 52.3693 3.33335 52.3598C3.29727 52.354 3.27924 52.3441 3.27924 52.3298C3.27924 52.3136 3.29391 52.3046 3.32386 52.3027C3.49388 52.2918 3.62162 52.2719 3.7071 52.2429H3.7308Z" fill="#4C1363"/>
<path d="M4.36001 53.4995C4.35624 53.5465 4.35435 53.584 4.35435 53.612C4.35435 53.7431 4.39326 53.8542 4.47066 53.9449C4.54853 54.0356 4.64451 54.0807 4.75893 54.0807C4.871 54.0807 4.97451 54.0361 5.07043 53.9473C5.09849 53.9221 5.11606 53.9098 5.12367 53.9098C5.13834 53.9098 5.14642 53.9216 5.14736 53.9458C5.11175 54.0109 5.05145 54.066 4.96597 54.1107C4.88049 54.1553 4.78552 54.1776 4.68059 54.1776C4.52672 54.1776 4.39615 54.1221 4.28927 54.0114C4.18245 53.9003 4.12921 53.7597 4.12921 53.5902C4.12921 53.4083 4.18763 53.2564 4.30495 53.1347C4.42226 53.0132 4.54759 52.9524 4.68106 52.9524C4.80638 52.9524 4.91946 52.9999 5.02055 53.0954C5.12171 53.1908 5.17206 53.3024 5.17206 53.4311C5.17206 53.4505 5.16923 53.4648 5.16304 53.4743C5.15685 53.4833 5.12124 53.4881 5.0567 53.4881L4.36001 53.4995ZM4.36001 53.4283C4.48062 53.4339 4.59793 53.4368 4.71141 53.4368L4.78552 53.4325C4.84111 53.4306 4.88385 53.4197 4.91374 53.3997C4.94369 53.3793 4.95836 53.3442 4.95836 53.2938C4.95836 53.2155 4.93178 53.1467 4.87813 53.0882C4.82449 53.0298 4.76176 53.0009 4.68914 53.0009C4.62216 53.0009 4.55519 53.0341 4.48869 53.1011C4.42226 53.168 4.37953 53.2768 4.36001 53.4283Z" fill="#4C1363"/>
<path d="M6.01213 53.9036C6.21163 53.4634 6.31131 53.1941 6.31131 53.0959C6.31131 53.0536 6.28519 53.0303 6.23343 53.0266C6.20261 53.0247 6.1874 53.0166 6.1874 53.0014C6.1874 52.9833 6.19877 52.9739 6.22206 52.9739L6.43098 52.9767L6.5559 52.9753C6.58579 52.9753 6.60052 52.9843 6.60052 53.0028C6.60052 53.0171 6.59009 53.0247 6.56869 53.0266C6.4923 53.0351 6.43717 53.0669 6.40298 53.1234C6.36879 53.1795 6.32228 53.282 6.26433 53.4311C6.16646 53.6833 6.09525 53.8562 6.05063 53.9497C6.00742 54.0394 5.98177 54.0969 5.97464 54.1221C5.96326 54.1534 5.94994 54.1691 5.93425 54.1691C5.92288 54.1691 5.90908 54.1496 5.89246 54.1107L5.72675 53.7522L5.55438 53.3671C5.49595 53.2355 5.45416 53.1509 5.42898 53.113C5.40381 53.0749 5.3853 53.0522 5.37299 53.0441C5.36107 53.036 5.33832 53.0294 5.30507 53.0236C5.28367 53.0204 5.27277 53.0118 5.27277 52.9986C5.27277 52.9809 5.28609 52.9724 5.31315 52.9724H5.55579C5.67021 52.9724 5.73435 52.9719 5.74815 52.9709C5.78086 52.9709 5.79702 52.9795 5.79702 52.9961C5.79702 53.0094 5.78039 53.0185 5.74667 53.0236C5.69922 53.0322 5.67593 53.0569 5.67593 53.0978C5.67593 53.1719 5.788 53.4401 6.01213 53.9036Z" fill="#4C1363"/>
<path d="M7.41503 53.9709C7.36994 54.0369 7.31582 54.0863 7.25262 54.1196C7.18996 54.1523 7.11875 54.1689 7.0394 54.1689C6.94584 54.1689 6.87275 54.1437 6.81957 54.0939C6.76633 54.0436 6.73975 53.9776 6.73975 53.8959C6.73975 53.8346 6.7559 53.7777 6.78774 53.7249C6.81957 53.6717 6.85565 53.6338 6.89698 53.6105C6.93776 53.5872 7.00998 53.5582 7.1135 53.5226C7.26117 53.4737 7.35002 53.4329 7.37943 53.4001C7.40891 53.3678 7.42358 53.3256 7.42358 53.2738C7.42358 53.1912 7.40413 53.1271 7.36563 53.081C7.32673 53.0349 7.27214 53.0121 7.20087 53.0121C7.14291 53.0121 7.09923 53.025 7.06982 53.0511C7.04034 53.0782 7.01759 53.1309 7.00191 53.2087C6.98528 53.2942 6.94874 53.3369 6.8922 53.3369C6.8718 53.3369 6.84946 53.327 6.82476 53.3066C6.80053 53.2861 6.78821 53.2558 6.78821 53.2163C6.78821 53.147 6.82664 53.0862 6.90357 53.0349C6.9805 52.9836 7.08645 52.958 7.22086 52.958C7.32767 52.958 7.41268 52.9732 7.47581 53.0031C7.53949 53.033 7.57933 53.0677 7.59548 53.1066C7.61164 53.1456 7.62018 53.2201 7.62018 53.3312L7.61164 53.6978C7.61164 53.8394 7.62019 53.9401 7.63775 53.9994C7.65532 54.0593 7.68763 54.0892 7.73467 54.0892C7.74417 54.0892 7.75742 54.0882 7.77452 54.0859L7.79828 54.0834C7.82015 54.0834 7.83106 54.091 7.83106 54.1067C7.83106 54.1423 7.73844 54.1604 7.55322 54.1604C7.49957 54.1604 7.4635 54.148 7.44546 54.1238C7.42695 54.0991 7.41692 54.0483 7.41503 53.9709ZM7.41409 53.4281C7.38609 53.4642 7.32343 53.5084 7.22604 53.5601C7.12918 53.6105 7.05939 53.658 7.01712 53.7036C6.97485 53.7501 6.95344 53.8057 6.95344 53.8707C6.95344 53.9291 6.97054 53.9785 7.00521 54.0194C7.03987 54.0602 7.08308 54.0806 7.13437 54.0806C7.18808 54.0806 7.23842 54.064 7.2854 54.0312C7.33245 53.9984 7.36711 53.9562 7.38986 53.9054C7.41221 53.8541 7.42358 53.7786 7.42358 53.6784C7.42358 53.6033 7.42029 53.5197 7.41409 53.4281Z" fill="#4C1363"/>
<path d="M8.31305 53.0833C8.30067 53.2885 8.29454 53.4899 8.29454 53.6874C8.29454 53.8399 8.31258 53.9391 8.34913 53.9852C8.38568 54.0317 8.43791 54.055 8.50629 54.055C8.55569 54.055 8.61082 54.0369 8.67065 54.0004C8.69199 53.9875 8.70532 53.9809 8.71003 53.9809C8.72241 53.9809 8.72854 53.9875 8.72854 54.0004C8.72854 54.0222 8.69529 54.0573 8.62933 54.1053C8.56283 54.1532 8.48213 54.1775 8.38568 54.1775C8.29071 54.1775 8.2195 54.1448 8.17198 54.0787C8.12453 54.0132 8.10077 53.9149 8.10077 53.7843C8.10077 53.648 8.10932 53.4144 8.12641 53.0833C8.11975 53.0815 8.07607 53.0786 7.99489 53.0743L7.91177 53.0691C7.89131 53.0682 7.88135 53.0611 7.88135 53.0482C7.88135 53.0359 7.89279 53.0264 7.91554 53.0188C7.9531 53.005 8.01623 52.9637 8.10501 52.8958C8.19385 52.8279 8.24561 52.7319 8.26035 52.608C8.26412 52.5752 8.27455 52.5591 8.29165 52.5591C8.30874 52.5591 8.31729 52.5719 8.31729 52.5981C8.31729 52.6066 8.31682 52.6152 8.31588 52.6246C8.31305 52.6607 8.31164 52.7025 8.31164 52.7495L8.31305 52.9666L8.616 52.9637C8.66776 52.9637 8.69435 52.9699 8.6963 52.9818C8.69529 53.025 8.68869 53.052 8.67537 53.0634C8.62744 53.0634 8.50676 53.0701 8.31305 53.0833Z" fill="#4C1363"/>
<path d="M9.09752 52.2742C9.13312 52.2742 9.16449 52.287 9.19249 52.3131C9.22049 52.3392 9.23429 52.3677 9.23429 52.3981C9.23429 52.4342 9.22291 52.4655 9.20009 52.4916C9.17728 52.5178 9.14598 52.5306 9.10606 52.5306C9.07046 52.5306 9.03909 52.5192 9.0111 52.4964C8.9831 52.4736 8.9693 52.4428 8.9693 52.4038C8.9693 52.3659 8.98114 52.3345 9.0049 52.3103C9.02866 52.286 9.05955 52.2742 9.09752 52.2742ZM9.25138 52.9523L9.24855 53.2667L9.25138 53.5601V53.7805V53.9486C9.25138 54.0155 9.26228 54.0578 9.28369 54.0764C9.30549 54.0944 9.3378 54.1044 9.38101 54.1063C9.43136 54.1091 9.45653 54.1191 9.45653 54.1367C9.45653 54.1504 9.44704 54.1575 9.42759 54.1575C9.41998 54.1575 9.41191 54.1571 9.40242 54.1561C9.31647 54.1457 9.23617 54.1405 9.16213 54.1405C9.04387 54.1405 8.96169 54.1442 8.9166 54.1518C8.90711 54.1538 8.89809 54.1547 8.8886 54.1547C8.86625 54.1547 8.85535 54.1466 8.85535 54.1305C8.85535 54.1143 8.88146 54.103 8.93322 54.0963C8.98545 54.0901 9.0187 54.0787 9.0329 54.0626C9.04764 54.046 9.05478 53.9999 9.05478 53.9235L9.06333 53.346C9.06333 53.1916 9.05195 53.1 9.02866 53.0715C9.00537 53.0435 8.96075 53.0283 8.89425 53.0264C8.87197 53.0264 8.861 53.0188 8.861 53.0031C8.861 52.9941 8.86484 52.9874 8.87197 52.9822C8.87951 52.9775 8.93463 52.9713 9.03721 52.9642C9.14026 52.9571 9.21147 52.9532 9.25138 52.9523Z" fill="#4C1363"/>
<path d="M9.94903 52.958C9.97178 53.0126 9.98557 53.1043 9.99035 53.2339C10.0478 53.1427 10.1114 53.0743 10.1812 53.0292C10.2515 52.9837 10.3275 52.9608 10.4101 52.9608C10.4728 52.9608 10.5336 52.9727 10.5925 52.9964C10.6514 53.0202 10.6969 53.0606 10.7288 53.119C10.7606 53.1769 10.7768 53.2752 10.7768 53.4143L10.7682 53.8835C10.7682 53.9695 10.7753 54.0236 10.79 54.0455C10.8043 54.0673 10.8351 54.0849 10.8822 54.0977C10.9145 54.1067 10.9306 54.1172 10.9306 54.1281C10.9306 54.1419 10.9225 54.149 10.9069 54.149C10.9007 54.149 10.894 54.1485 10.8874 54.1476C10.8451 54.139 10.7819 54.1347 10.6988 54.1347C10.6243 54.1347 10.5435 54.1381 10.4576 54.1447C10.4234 54.1447 10.4063 54.1367 10.4063 54.1205C10.4063 54.1091 10.4153 54.1015 10.4338 54.0977C10.4847 54.0868 10.5179 54.0749 10.5336 54.063C10.5493 54.0512 10.5602 54.035 10.5664 54.0151C10.573 53.9951 10.5782 53.9282 10.5825 53.8142C10.5868 53.7007 10.5887 53.6081 10.5887 53.5364C10.5887 53.3412 10.564 53.2111 10.5151 53.1465C10.4657 53.0814 10.4049 53.0491 10.3313 53.0491C10.223 53.0491 10.1328 53.108 10.0611 53.2253C9.98935 53.3427 9.95327 53.5388 9.95327 53.8123C9.95327 53.9367 9.96134 54.016 9.97749 54.0497C9.99365 54.0839 10.0345 54.1044 10.0995 54.112C10.12 54.1139 10.1299 54.1224 10.1299 54.1381C10.1299 54.1509 10.12 54.1575 10.0995 54.1575L10.0274 54.1518C10.0017 54.1499 9.91625 54.149 9.7714 54.149L9.66075 54.1518C9.62037 54.1518 9.59998 54.1442 9.59998 54.1291C9.59998 54.1129 9.62185 54.1005 9.666 54.092C9.7078 54.0834 9.73627 54.0692 9.75101 54.0483C9.76568 54.0274 9.77571 53.9581 9.78042 53.8403C9.78567 53.723 9.78803 53.5758 9.78803 53.4001C9.78803 53.2363 9.77713 53.1341 9.75478 53.0943C9.73297 53.0544 9.70208 53.0297 9.66217 53.0207C9.62656 53.0121 9.60852 53.0003 9.60852 52.9851C9.60852 52.9689 9.62232 52.9608 9.64985 52.9608L9.76239 52.9622C9.77423 52.9622 9.83649 52.9608 9.94903 52.958Z" fill="#4C1363"/>
<path d="M12.1283 53.1527C12.17 53.2192 12.1909 53.2919 12.1909 53.3711C12.1909 53.4903 12.1515 53.592 12.0722 53.676C11.992 53.7601 11.8775 53.8076 11.7284 53.8185C11.6325 53.8261 11.5669 53.8341 11.5323 53.8427C11.4971 53.8517 11.4653 53.8693 11.4364 53.8954C11.4074 53.922 11.3932 53.9482 11.3932 53.9743C11.3932 54.0127 11.4154 54.0417 11.4601 54.0602C11.5038 54.0787 11.5964 54.0901 11.7379 54.0949C11.9454 54.1025 12.0836 54.1115 12.1534 54.122C12.2233 54.1329 12.2831 54.1652 12.3329 54.2197C12.3828 54.2744 12.4075 54.3442 12.4075 54.4297C12.4075 54.5711 12.3453 54.6861 12.2208 54.7744C12.0965 54.8627 11.9126 54.9069 11.6695 54.9069C11.4895 54.9069 11.3542 54.8837 11.264 54.8371C11.1733 54.791 11.1282 54.7217 11.1282 54.6296C11.1282 54.4847 11.2649 54.3669 11.5385 54.2758C11.4235 54.2573 11.3423 54.2321 11.2953 54.1998C11.2483 54.1675 11.225 54.1229 11.225 54.0649C11.225 54.0056 11.2497 53.9533 11.2987 53.9083C11.348 53.8632 11.4216 53.8251 11.5204 53.7943C11.4316 53.7681 11.3604 53.7226 11.3062 53.6575C11.2521 53.592 11.225 53.5155 11.225 53.4277C11.225 53.3004 11.2735 53.1897 11.3699 53.0948C11.4667 52.9998 11.5893 52.9523 11.7379 52.9523C11.8828 52.9523 12.0005 53.0026 12.0917 53.1038C12.1871 52.995 12.2769 52.9409 12.3605 52.9409C12.4189 52.9409 12.464 52.9575 12.4963 52.9913C12.5281 53.0245 12.5442 53.0611 12.5442 53.101C12.5442 53.1261 12.5348 53.147 12.5162 53.1636C12.4977 53.1803 12.4754 53.1888 12.4497 53.1888C12.4023 53.1888 12.3647 53.1608 12.3367 53.1052C12.3201 53.0715 12.3002 53.0549 12.2769 53.0549C12.2389 53.0549 12.1895 53.0877 12.1283 53.1527ZM11.4473 53.383C11.4473 53.5198 11.4772 53.6171 11.537 53.6751C11.5968 53.7325 11.66 53.7615 11.727 53.7615C11.7887 53.7615 11.8447 53.732 11.8941 53.6727C11.944 53.6138 11.9687 53.5231 11.9687 53.4011C11.9687 53.2757 11.944 53.1784 11.8951 53.1095C11.8457 53.0406 11.7854 53.0064 11.7141 53.0064C11.6353 53.0064 11.5712 53.0397 11.5219 53.1062C11.472 53.1727 11.4473 53.2653 11.4473 53.383ZM11.8181 54.2801C11.7218 54.2801 11.6325 54.2957 11.5499 54.3276C11.4672 54.3594 11.4064 54.3974 11.367 54.4415C11.3276 54.4857 11.3077 54.5384 11.3077 54.6002C11.3077 54.6818 11.3471 54.7445 11.4259 54.7877C11.5048 54.831 11.6035 54.8528 11.7222 54.8528C11.9022 54.8528 12.0357 54.8162 12.123 54.7431C12.2099 54.67 12.2536 54.5902 12.2536 54.5037C12.2536 54.4292 12.2175 54.3731 12.1448 54.3361C12.0727 54.2986 11.9639 54.2801 11.8181 54.2801Z" fill="#4C1363"/>
<path d="M14.0401 53.8732C14.1987 53.5028 14.2775 53.2848 14.2775 53.2197C14.2775 53.1884 14.269 53.1571 14.2519 53.1252C14.2348 53.0939 14.2181 53.0725 14.202 53.0621C14.1858 53.0517 14.1612 53.0455 14.1289 53.0436C14.1065 53.0426 14.0956 53.0341 14.0956 53.0179C14.0956 52.997 14.1075 52.9866 14.1317 52.9866L14.3777 52.9809C14.4965 52.9809 14.5629 52.9819 14.5776 52.9842C14.5924 52.9866 14.6 52.9942 14.6 53.0075C14.6 53.0194 14.5848 53.0303 14.5539 53.0407C14.4983 53.0602 14.4708 53.0868 14.4708 53.1215C14.4708 53.1314 14.4794 53.1619 14.4965 53.2121C14.5135 53.2629 14.5477 53.3484 14.5986 53.4686L14.7666 53.8552C14.8303 53.6965 14.8877 53.5398 14.9395 53.3846C14.9908 53.2292 15.0165 53.14 15.0165 53.1167C15.0165 53.0697 14.987 53.0431 14.9276 53.0379C14.8934 53.0341 14.8763 53.0231 14.8763 53.0051C14.8763 52.9918 14.8911 52.9837 14.921 52.9814C14.9504 52.979 15.0122 52.978 15.1067 52.978C15.1688 52.978 15.2083 52.9794 15.2259 52.9823C15.2434 52.9847 15.2524 52.9923 15.2524 53.0041C15.2524 53.0161 15.2339 53.0298 15.1969 53.0464C15.1508 53.0669 15.1161 53.0935 15.0929 53.1267C15.0696 53.1604 15.0431 53.2292 15.0136 53.3337C14.9889 53.4192 14.9352 53.5702 14.8526 53.7873L14.7182 54.1429C14.7106 54.1643 14.7011 54.1747 14.6888 54.1747C14.6769 54.1747 14.6626 54.151 14.6455 54.104C14.6337 54.0731 14.5942 53.9786 14.5268 53.8195C14.4347 53.6068 14.3673 53.4415 14.325 53.3233L14.3151 53.3328C14.2884 53.4121 14.2486 53.5175 14.1963 53.6481L14.0524 54.0024C14.0097 54.1082 13.985 54.1638 13.9779 54.169C13.9712 54.1747 13.9655 54.1776 13.9608 54.1776C13.9484 54.1776 13.9346 54.1576 13.919 54.1177C13.8425 53.9231 13.7727 53.7506 13.7086 53.5992L13.5495 53.2326C13.5087 53.1381 13.4788 53.0834 13.4598 53.0688C13.4408 53.054 13.4185 53.0455 13.3938 53.0436C13.3619 53.0397 13.3463 53.0312 13.3463 53.017C13.3463 52.9965 13.3672 52.9866 13.409 52.9866L13.7248 52.9809L13.8558 52.9837C13.8829 52.9837 13.8962 52.9909 13.8962 53.0046C13.8962 53.0231 13.8781 53.035 13.842 53.0407C13.7751 53.0521 13.7419 53.0749 13.7419 53.1096C13.7419 53.159 13.8411 53.4135 14.0401 53.8732Z" fill="#4C1363"/>
<path d="M15.42 53.5683C15.42 53.4054 15.4789 53.262 15.5967 53.1381C15.7145 53.0141 15.8594 52.9524 16.0313 52.9524C16.1923 52.9524 16.3314 53.008 16.4477 53.1191C16.5641 53.2298 16.6225 53.3684 16.6225 53.5351C16.6225 53.7032 16.5612 53.8513 16.4387 53.9781C16.3162 54.1054 16.1732 54.169 16.0103 54.169C15.8489 54.169 15.7102 54.1107 15.5939 53.9934C15.478 53.8765 15.42 53.735 15.42 53.5683ZM15.6452 53.5607C15.6452 53.7198 15.6822 53.8518 15.7558 53.9568C15.8299 54.0622 15.9211 54.1149 16.0298 54.1149C16.1291 54.1149 16.2164 54.0655 16.2924 53.9668C16.3679 53.868 16.406 53.7369 16.406 53.5731C16.406 53.4273 16.3693 53.2971 16.2967 53.1832C16.2236 53.0692 16.1291 53.0122 16.0132 53.0122C15.9054 53.0122 15.8171 53.064 15.7482 53.168C15.6794 53.272 15.6452 53.4031 15.6452 53.5607Z" fill="#4C1363"/>
<path d="M17.1933 52.9538C17.2042 52.9889 17.2098 53.0213 17.2098 53.0507C17.2089 53.0944 17.2075 53.1381 17.2056 53.1827C17.2745 53.1053 17.3438 53.0478 17.4141 53.0094C17.4849 52.9714 17.5561 52.9524 17.6282 52.9524C17.6943 52.9524 17.7555 52.9681 17.812 52.9999C17.8685 53.0312 17.9198 53.0787 17.9664 53.1419C18.0324 53.0783 18.0988 53.0307 18.1658 52.9994C18.2332 52.9681 18.3007 52.9524 18.3681 52.9524C18.4583 52.9524 18.5329 52.9709 18.5927 53.008C18.6526 53.045 18.6901 53.0859 18.7048 53.131C18.7195 53.1761 18.7271 53.2578 18.7271 53.3765L18.7214 53.8989C18.7214 53.9749 18.729 54.0266 18.7447 54.0541C18.7599 54.0812 18.7912 54.095 18.8392 54.095C18.871 54.095 18.8867 54.104 18.8867 54.1211C18.8867 54.1396 18.861 54.1491 18.8102 54.1491H18.3823C18.3406 54.1491 18.3197 54.1401 18.3197 54.1225C18.3197 54.1073 18.3316 54.0983 18.3557 54.0964C18.4317 54.0926 18.4788 54.0755 18.4973 54.0442C18.5158 54.0133 18.5248 53.8462 18.5248 53.5432C18.5248 53.4017 18.5196 53.2996 18.5087 53.2368C18.4982 53.1742 18.4731 53.1234 18.4331 53.0834C18.3933 53.0436 18.3444 53.0236 18.2864 53.0236C18.2351 53.0236 18.1857 53.0393 18.1378 53.0702C18.0898 53.1011 18.0428 53.1476 17.9977 53.2102C17.9597 53.3318 17.9407 53.5455 17.9407 53.8518C17.9407 53.9592 17.9493 54.0271 17.9664 54.0556C17.9839 54.0836 18.0219 54.0978 18.0803 54.0978H18.1041C18.134 54.0978 18.1487 54.1059 18.1487 54.1225C18.1487 54.1401 18.1302 54.1491 18.0932 54.1491H17.624C17.5769 54.1491 17.5532 54.1401 17.5532 54.1216C17.5532 54.1031 17.5665 54.0936 17.5936 54.0936C17.6496 54.0936 17.6881 54.0817 17.7076 54.0584C17.7275 54.0347 17.7413 53.9668 17.7479 53.8547C17.755 53.7426 17.7584 53.632 17.7584 53.5228C17.7584 53.3257 17.7389 53.1961 17.7004 53.1338C17.662 53.0716 17.606 53.0407 17.5328 53.0407C17.4697 53.0407 17.4069 53.0659 17.3452 53.1158C17.2835 53.1656 17.2422 53.2335 17.2208 53.3185C17.1994 53.4036 17.1885 53.5536 17.1885 53.7688C17.1885 53.9207 17.1961 54.0133 17.2109 54.047C17.2255 54.0807 17.2621 54.0978 17.3205 54.0978C17.3438 54.0978 17.3581 54.0992 17.3632 54.1021C17.3685 54.105 17.3708 54.113 17.3708 54.1258C17.3708 54.1415 17.3528 54.1491 17.3167 54.1491H16.886C16.8352 54.1491 16.8096 54.1396 16.8096 54.1211C16.8096 54.105 16.8191 54.0959 16.8376 54.095C16.8875 54.093 16.9216 54.0836 16.9397 54.0665C16.9577 54.0494 16.971 53.9985 16.9796 53.9145C16.9876 53.8305 16.9919 53.6937 16.9919 53.5042C16.9919 53.3147 16.991 53.2003 16.9886 53.1604C16.9862 53.1201 16.9725 53.0882 16.9478 53.064C16.9226 53.0398 16.8798 53.0275 16.82 53.0265C16.7958 53.0256 16.7839 53.0175 16.7839 53.0023C16.7839 52.9923 16.7872 52.9852 16.7934 52.9814C16.8001 52.9771 16.8418 52.9714 16.9192 52.9638C16.9962 52.9562 17.0645 52.9524 17.1239 52.9524C17.1386 52.9524 17.1619 52.9529 17.1933 52.9538Z" fill="#4C1363"/>
<path d="M19.2723 53.4995C19.2685 53.5465 19.2666 53.584 19.2666 53.612C19.2666 53.7431 19.3055 53.8542 19.3829 53.9449C19.4608 54.0356 19.5568 54.0807 19.6712 54.0807C19.7833 54.0807 19.8868 54.0361 19.9827 53.9473C20.0108 53.9221 20.0284 53.9098 20.036 53.9098C20.0506 53.9098 20.0587 53.9216 20.0596 53.9458C20.024 54.0109 19.9637 54.066 19.8783 54.1107C19.7928 54.1553 19.6978 54.1776 19.5929 54.1776C19.439 54.1776 19.3084 54.1221 19.2016 54.0114C19.0947 53.9003 19.0415 53.7597 19.0415 53.5902C19.0415 53.4083 19.0999 53.2564 19.2172 53.1347C19.3346 53.0132 19.4599 52.9524 19.5933 52.9524C19.7187 52.9524 19.8317 52.9999 19.9328 53.0954C20.034 53.1908 20.0843 53.3024 20.0843 53.4311C20.0843 53.4505 20.0815 53.4648 20.0753 53.4743C20.0691 53.4833 20.0335 53.4881 19.969 53.4881L19.2723 53.4995ZM19.2723 53.4283C19.3929 53.4339 19.5102 53.4368 19.6237 53.4368L19.6978 53.4325C19.7534 53.4306 19.7961 53.4197 19.826 53.3997C19.856 53.3793 19.8707 53.3442 19.8707 53.2938C19.8707 53.2155 19.8441 53.1467 19.7904 53.0882C19.7368 53.0298 19.674 53.0009 19.6014 53.0009C19.5345 53.0009 19.4675 53.0341 19.401 53.1011C19.3346 53.168 19.2918 53.2768 19.2723 53.4283Z" fill="#4C1363"/>
<path d="M20.6049 52.958C20.6276 53.0126 20.6414 53.1043 20.6462 53.2339C20.7036 53.1427 20.7673 53.0743 20.8371 53.0292C20.9073 52.9837 20.9833 52.9608 21.066 52.9608C21.1286 52.9608 21.1894 52.9727 21.2483 52.9964C21.3072 53.0202 21.3528 53.0606 21.3846 53.119C21.4164 53.1769 21.4326 53.2752 21.4326 53.4143L21.424 53.8835C21.424 53.9695 21.4311 54.0236 21.4459 54.0455C21.4601 54.0673 21.4909 54.0849 21.538 54.0977C21.5703 54.1067 21.5865 54.1172 21.5865 54.1281C21.5865 54.1419 21.5784 54.149 21.5627 54.149C21.5565 54.149 21.5498 54.1485 21.5432 54.1476C21.501 54.139 21.4378 54.1347 21.3547 54.1347C21.2801 54.1347 21.1994 54.1381 21.1134 54.1447C21.0792 54.1447 21.0621 54.1367 21.0621 54.1205C21.0621 54.1091 21.0712 54.1015 21.0897 54.0977C21.1405 54.0868 21.1737 54.0749 21.1894 54.063C21.2051 54.0512 21.216 54.035 21.2222 54.0151C21.2289 53.9951 21.234 53.9282 21.2383 53.8142C21.2426 53.7007 21.2445 53.6081 21.2445 53.5364C21.2445 53.3412 21.2198 53.2111 21.1709 53.1465C21.1215 53.0814 21.0607 53.0491 20.9871 53.0491C20.8789 53.0491 20.7886 53.108 20.7169 53.2253C20.6452 53.3427 20.6091 53.5388 20.6091 53.8123C20.6091 53.9367 20.6172 54.016 20.6333 54.0497C20.6495 54.0839 20.6903 54.1044 20.7554 54.112C20.7758 54.1139 20.7858 54.1224 20.7858 54.1381C20.7858 54.1509 20.7758 54.1575 20.7554 54.1575L20.6832 54.1518C20.6576 54.1499 20.5721 54.149 20.4272 54.149L20.3166 54.1518C20.2762 54.1518 20.2558 54.1442 20.2558 54.1291C20.2558 54.1129 20.2777 54.1005 20.3218 54.092C20.3636 54.0834 20.3921 54.0692 20.4068 54.0483C20.4215 54.0274 20.4315 53.9581 20.4363 53.8403C20.4415 53.723 20.4439 53.5758 20.4439 53.4001C20.4439 53.2363 20.4329 53.1341 20.4106 53.0943C20.3888 53.0544 20.3579 53.0297 20.318 53.0207C20.2824 53.0121 20.2643 53.0003 20.2643 52.9851C20.2643 52.9689 20.2781 52.9608 20.3057 52.9608L20.4182 52.9622C20.4301 52.9622 20.4923 52.9608 20.6049 52.958Z" fill="#4C1363"/>
<path d="M21.9654 53.8926C22.0138 53.8926 22.058 53.914 22.0988 53.9562C22.1396 53.9989 22.1601 54.0479 22.1601 54.103C22.1601 54.1818 22.1354 54.262 22.0865 54.3447C22.037 54.4273 21.9825 54.489 21.9217 54.5299C21.8614 54.5702 21.8243 54.5907 21.8106 54.5907C21.7949 54.5907 21.7868 54.5812 21.7868 54.5617C21.7868 54.5541 21.7963 54.545 21.8157 54.5337C21.8594 54.5099 21.9027 54.4672 21.9449 54.4059C21.9876 54.3451 22.009 54.2834 22.009 54.2216C22.009 54.1875 21.9915 54.1689 21.9563 54.1661C21.9012 54.1613 21.8628 54.1452 21.8414 54.1176C21.82 54.0901 21.8096 54.0631 21.8096 54.0365C21.8096 53.9995 21.8229 53.9662 21.8499 53.9367C21.8771 53.9073 21.9155 53.8926 21.9654 53.8926Z" fill="#4C1363"/>
<path d="M24.6019 52.3441C24.629 52.448 24.6551 52.5938 24.6812 52.7819C24.677 52.789 24.6717 52.7928 24.6665 52.7928C24.6603 52.7928 24.6532 52.789 24.6461 52.7814C24.582 52.6784 24.5207 52.6 24.4623 52.5459C24.4039 52.4922 24.345 52.4538 24.2861 52.4309C24.2272 52.4082 24.1261 52.3968 23.9822 52.3968C23.8464 52.3968 23.7395 52.4048 23.6607 52.4205C23.6531 52.4295 23.6493 52.4466 23.6493 52.4718C23.6493 52.4785 23.6483 52.4898 23.6464 52.5065C23.6374 52.581 23.6327 52.7823 23.6327 53.1105C23.6327 53.1243 23.6336 53.1438 23.6355 53.1689C23.7063 53.1718 23.7543 53.1732 23.7804 53.1732C23.8977 53.1732 23.9822 53.1556 24.0349 53.121C24.0872 53.0863 24.1332 53.0113 24.1722 52.8964C24.1783 52.8769 24.1868 52.8669 24.1978 52.8669C24.2144 52.8669 24.2225 52.8802 24.2225 52.9073L24.2177 52.9628C24.2115 53.036 24.2082 53.1115 24.2082 53.1889C24.2082 53.3147 24.2101 53.4282 24.214 53.5294C24.214 53.5607 24.2054 53.5764 24.1888 53.5764C24.1764 53.5764 24.1679 53.5655 24.1636 53.5431C24.1441 53.4339 24.1033 53.3551 24.0411 53.3067C23.9793 53.2587 23.8444 53.2344 23.6369 53.2344C23.6341 53.3024 23.6327 53.4116 23.6327 53.5631C23.6327 53.7592 23.6398 53.8836 23.6536 53.9363C23.6674 53.9895 23.7006 54.0313 23.7538 54.0627C23.8065 54.0936 23.8957 54.1092 24.0221 54.1092C24.3825 54.1092 24.6152 53.9848 24.7197 53.7364C24.7325 53.7055 24.7453 53.6903 24.7591 53.6903C24.7738 53.6903 24.781 53.7003 24.781 53.7207C24.781 53.7321 24.7786 53.744 24.7738 53.7573C24.7686 53.7749 24.7548 53.8404 24.7334 53.9548C24.7292 53.9791 24.7112 54.0513 24.6807 54.1719L24.0971 54.1704C24.0135 54.1704 23.8906 54.1667 23.7286 54.1595C23.5667 54.1524 23.4232 54.1491 23.2984 54.1486C23.1735 54.1481 23.1079 54.1453 23.1027 54.141C23.097 54.1363 23.0942 54.131 23.0942 54.1253C23.0942 54.1068 23.1093 54.0978 23.1402 54.0978C23.2437 54.0978 23.3116 54.0703 23.3444 54.0156C23.3772 53.961 23.3934 53.828 23.3934 53.6168L23.3919 53.3318L23.3962 53.0649C23.3962 53.0113 23.3929 52.9096 23.3872 52.7596C23.381 52.61 23.3753 52.5245 23.3705 52.5032C23.3653 52.4818 23.3506 52.4609 23.3273 52.44C23.3036 52.4191 23.2513 52.3982 23.1702 52.3768C23.1459 52.3702 23.134 52.3597 23.134 52.3455C23.134 52.3284 23.1502 52.3198 23.183 52.3198L23.4669 52.3355C23.5671 52.3403 23.8136 52.3426 24.2064 52.3426C24.4647 52.3426 24.5962 52.3431 24.6019 52.3441Z" fill="#4C1363"/>
<path d="M25.3247 52.958C25.3475 53.0126 25.3612 53.1043 25.366 53.2339C25.4234 53.1427 25.4871 53.0743 25.5569 53.0292C25.6272 52.9837 25.7032 52.9608 25.7858 52.9608C25.8485 52.9608 25.9093 52.9727 25.9682 52.9964C26.027 53.0202 26.0726 53.0606 26.1044 53.119C26.1363 53.1769 26.1524 53.2752 26.1524 53.4143L26.1439 53.8835C26.1439 53.9695 26.151 54.0236 26.1657 54.0455C26.18 54.0673 26.2108 54.0849 26.2578 54.0977C26.2901 54.1067 26.3063 54.1172 26.3063 54.1281C26.3063 54.1419 26.2982 54.149 26.2825 54.149C26.2763 54.149 26.2697 54.1485 26.263 54.1476C26.2208 54.139 26.1576 54.1347 26.0745 54.1347C26 54.1347 25.9192 54.1381 25.8333 54.1447C25.7991 54.1447 25.782 54.1367 25.782 54.1205C25.782 54.1091 25.791 54.1015 25.8095 54.0977C25.8603 54.0868 25.8936 54.0749 25.9093 54.063C25.9249 54.0512 25.9358 54.035 25.942 54.0151C25.9487 53.9951 25.9539 53.9282 25.9582 53.8142C25.9624 53.7007 25.9644 53.6081 25.9644 53.5364C25.9644 53.3412 25.9397 53.2111 25.8907 53.1465C25.8413 53.0814 25.7806 53.0491 25.7069 53.0491C25.5987 53.0491 25.5085 53.108 25.4368 53.2253C25.365 53.3427 25.3289 53.5388 25.3289 53.8123C25.3289 53.9367 25.337 54.016 25.3532 54.0497C25.3693 54.0839 25.4102 54.1044 25.4752 54.112C25.4957 54.1139 25.5056 54.1224 25.5056 54.1381C25.5056 54.1509 25.4957 54.1575 25.4752 54.1575L25.403 54.1518C25.3774 54.1499 25.2919 54.149 25.1471 54.149L25.0364 54.1518C24.996 54.1518 24.9756 54.1442 24.9756 54.1291C24.9756 54.1129 24.9975 54.1005 25.0417 54.092C25.0835 54.0834 25.1119 54.0692 25.1267 54.0483C25.1414 54.0274 25.1514 53.9581 25.1561 53.8403C25.1613 53.723 25.1637 53.5758 25.1637 53.4001C25.1637 53.2363 25.1528 53.1341 25.1305 53.0943C25.1086 53.0544 25.0778 53.0297 25.0378 53.0207C25.0022 53.0121 24.9842 53.0003 24.9842 52.9851C24.9842 52.9689 24.998 52.9608 25.0255 52.9608L25.1381 52.9622C25.1499 52.9622 25.2122 52.9608 25.3247 52.958Z" fill="#4C1363"/>
<path d="M26.88 53.2695C26.9393 53.1655 27.0025 53.0876 27.0699 53.0359C27.1369 52.9841 27.2076 52.958 27.2822 52.958C27.3339 52.958 27.3786 52.9765 27.4161 53.0131C27.4536 53.0501 27.4726 53.0919 27.4726 53.1384C27.4726 53.2272 27.4346 53.2714 27.3587 53.2714C27.3235 53.2714 27.2931 53.2467 27.2689 53.1973C27.239 53.1346 27.1991 53.1033 27.1497 53.1033C27.1027 53.1033 27.0547 53.1294 27.0048 53.1812C26.9554 53.233 26.9222 53.2895 26.9051 53.3512C26.8885 53.4129 26.88 53.5416 26.88 53.7378C26.88 53.9177 26.8875 54.0208 26.9022 54.0469C26.9175 54.0735 26.9554 54.0901 27.0172 54.0977C27.0338 54.0996 27.0424 54.1067 27.0424 54.1181C27.0424 54.1386 27.0205 54.149 26.9773 54.149H26.5366C26.5053 54.149 26.4896 54.1404 26.4896 54.1238C26.4896 54.1086 26.51 54.0996 26.5508 54.0977C26.6083 54.0939 26.6435 54.0758 26.6572 54.0436C26.671 54.0108 26.6776 53.8916 26.6776 53.6846C26.6776 53.3816 26.6714 53.1992 26.6591 53.138C26.6463 53.0767 26.5998 53.0444 26.5195 53.0406C26.4863 53.0387 26.4697 53.0301 26.4697 53.014C26.4697 53.0059 26.473 52.9998 26.4801 52.9955C26.4868 52.9912 26.529 52.9869 26.6064 52.9827L26.86 52.9694C26.8662 53.0193 26.8728 53.1195 26.88 53.2695Z" fill="#4C1363"/>
<path d="M27.8573 52.2742C27.8929 52.2742 27.9243 52.287 27.9523 52.3131C27.9802 52.3392 27.994 52.3677 27.994 52.3981C27.994 52.4342 27.9827 52.4655 27.9599 52.4916C27.937 52.5178 27.9057 52.5306 27.8658 52.5306C27.8302 52.5306 27.7989 52.5192 27.7709 52.4964C27.7429 52.4736 27.7291 52.4428 27.7291 52.4038C27.7291 52.3659 27.7409 52.3345 27.7647 52.3103C27.7884 52.286 27.8193 52.2742 27.8573 52.2742ZM28.0111 52.9523L28.0083 53.2667L28.0111 53.5601V53.7805V53.9486C28.0111 54.0155 28.022 54.0578 28.0434 54.0764C28.0653 54.0944 28.0976 54.1044 28.1408 54.1063C28.1911 54.1091 28.2163 54.1191 28.2163 54.1367C28.2163 54.1504 28.2068 54.1575 28.1874 54.1575C28.1797 54.1575 28.1717 54.1571 28.1622 54.1561C28.0762 54.1457 27.9959 54.1405 27.9219 54.1405C27.8036 54.1405 27.7215 54.1442 27.6764 54.1518C27.6669 54.1538 27.6579 54.1547 27.6484 54.1547C27.626 54.1547 27.6151 54.1466 27.6151 54.1305C27.6151 54.1143 27.6412 54.103 27.693 54.0963C27.7452 54.0901 27.7785 54.0787 27.7927 54.0626C27.8074 54.046 27.8145 53.9999 27.8145 53.9235L27.8231 53.346C27.8231 53.1916 27.8117 53.1 27.7884 53.0715C27.7651 53.0435 27.7205 53.0283 27.654 53.0264C27.6317 53.0264 27.6208 53.0188 27.6208 53.0031C27.6208 52.9941 27.6246 52.9874 27.6317 52.9822C27.6393 52.9775 27.6944 52.9713 27.797 52.9642C27.9 52.9571 27.9712 52.9532 28.0111 52.9523Z" fill="#4C1363"/>
<path d="M28.3569 53.5878C28.3569 53.4183 28.4115 53.2701 28.5202 53.1428C28.6295 53.0161 28.7619 52.9524 28.9186 52.9524C29.0198 52.9524 29.1166 52.9771 29.2092 53.0265C29.3019 53.0759 29.3484 53.1376 29.3484 53.2117C29.3484 53.2407 29.3394 53.2658 29.3218 53.2872C29.3042 53.3091 29.2838 53.32 29.2605 53.32C29.2083 53.32 29.1685 53.2786 29.1404 53.1961C29.0977 53.0697 29.0231 53.0065 28.9167 53.0065C28.8113 53.0065 28.731 53.0521 28.676 53.1433C28.6209 53.234 28.5933 53.3537 28.5933 53.5013C28.5933 53.6752 28.6318 53.8172 28.7088 53.9273C28.7857 54.037 28.8788 54.0921 28.987 54.0921C29.0587 54.0921 29.1276 54.0641 29.1946 54.0086C29.2601 53.9534 29.2986 53.8865 29.3099 53.8077C29.3147 53.7806 29.3247 53.7673 29.3404 53.7673C29.357 53.7673 29.3655 53.7758 29.3655 53.7925C29.3655 53.8837 29.3237 53.9691 29.2397 54.0489C29.1556 54.1292 29.0431 54.169 28.902 54.169C28.7481 54.169 28.619 54.1107 28.514 53.9938C28.4091 53.877 28.3569 53.7416 28.3569 53.5878Z" fill="#4C1363"/>
<path d="M29.914 53.1608C30.0261 53.0216 30.1591 52.9523 30.3125 52.9523C30.435 52.9523 30.5285 52.987 30.5935 53.0568C30.6591 53.1261 30.6919 53.2501 30.6919 53.4282L30.6833 53.7971C30.6833 53.9149 30.6848 53.9866 30.6876 54.0118C30.6905 54.0365 30.7033 54.0583 30.727 54.0768C30.7508 54.0958 30.774 54.1053 30.7968 54.1063C30.822 54.1063 30.8344 54.112 30.8344 54.1234C30.8344 54.1405 30.8139 54.149 30.7731 54.149H30.3595C30.3438 54.1452 30.3357 54.1372 30.3357 54.1248C30.3357 54.1115 30.3467 54.1034 30.368 54.1005C30.4345 54.092 30.4734 54.0664 30.4858 54.0231C30.4976 53.9804 30.5038 53.8432 30.5038 53.6119C30.5038 53.3635 30.4791 53.2035 30.4297 53.1313C30.3803 53.0596 30.3148 53.0235 30.2336 53.0235C30.1543 53.0235 30.084 53.0539 30.0237 53.1142C29.9634 53.175 29.9273 53.2643 29.9164 53.3816C29.9055 53.4994 29.8998 53.6428 29.8998 53.8119C29.8998 53.9268 29.9059 54.0018 29.9178 54.0369C29.9302 54.0721 29.9648 54.0954 30.0213 54.1063C30.0446 54.11 30.0565 54.1186 30.0565 54.1319C30.0565 54.1471 30.0455 54.1547 30.0233 54.1547L29.7426 54.149C29.6823 54.149 29.6296 54.1504 29.5854 54.1532C29.5574 54.1532 29.5436 54.1457 29.5436 54.1305C29.5436 54.1172 29.5545 54.1091 29.5769 54.1063C29.621 54.1005 29.6509 54.0882 29.6666 54.0688C29.6823 54.0493 29.6955 53.9747 29.7065 53.8441C29.7174 53.714 29.7231 53.5478 29.7231 53.3446C29.7231 52.9827 29.7217 52.7453 29.7184 52.6327C29.7151 52.5202 29.6984 52.4385 29.6685 52.3881C29.6391 52.3373 29.6025 52.3084 29.5598 52.2998C29.5336 52.2941 29.5208 52.2851 29.5208 52.2723C29.5208 52.2647 29.5236 52.2604 29.5298 52.259C29.536 52.2575 29.5659 52.2571 29.6201 52.2571C29.7108 52.2571 29.8091 52.2543 29.914 52.2485L29.9097 52.94C29.9097 53.0278 29.9112 53.1014 29.914 53.1608Z" fill="#4C1363"/>
<path d="M31.2702 52.2742C31.3058 52.2742 31.3372 52.287 31.3652 52.3131C31.3932 52.3392 31.407 52.3677 31.407 52.3981C31.407 52.4342 31.3956 52.4655 31.3728 52.4916C31.35 52.5178 31.3187 52.5306 31.2788 52.5306C31.2432 52.5306 31.2118 52.5192 31.1838 52.4964C31.1558 52.4736 31.142 52.4428 31.142 52.4038C31.142 52.3659 31.1539 52.3345 31.1776 52.3103C31.2014 52.286 31.2323 52.2742 31.2702 52.2742ZM31.4241 52.9523L31.4213 53.2667L31.4241 53.5601V53.7805V53.9486C31.4241 54.0155 31.435 54.0578 31.4564 54.0764C31.4782 54.0944 31.5105 54.1044 31.5537 54.1063C31.6041 54.1091 31.6293 54.1191 31.6293 54.1367C31.6293 54.1504 31.6198 54.1575 31.6003 54.1575C31.5927 54.1575 31.5846 54.1571 31.5751 54.1561C31.4892 54.1457 31.4089 54.1405 31.3349 54.1405C31.2166 54.1405 31.1344 54.1442 31.0893 54.1518C31.0798 54.1538 31.0708 54.1547 31.0613 54.1547C31.039 54.1547 31.0281 54.1466 31.0281 54.1305C31.0281 54.1143 31.0542 54.103 31.106 54.0963C31.1582 54.0901 31.1914 54.0787 31.2056 54.0626C31.2204 54.046 31.2275 53.9999 31.2275 53.9235L31.236 53.346C31.236 53.1916 31.2247 53.1 31.2014 53.0715C31.1781 53.0435 31.1335 53.0283 31.067 53.0264C31.0447 53.0264 31.0337 53.0188 31.0337 53.0031C31.0337 52.9941 31.0376 52.9874 31.0447 52.9822C31.0522 52.9775 31.1074 52.9713 31.2099 52.9642C31.313 52.9571 31.3842 52.9532 31.4241 52.9523Z" fill="#4C1363"/>
<path d="M32.1218 52.958C32.1445 53.0126 32.1583 53.1043 32.1631 53.2339C32.2205 53.1427 32.2842 53.0743 32.354 53.0292C32.4242 52.9837 32.5002 52.9608 32.5829 52.9608C32.6455 52.9608 32.7063 52.9727 32.7652 52.9964C32.8241 53.0202 32.8697 53.0606 32.9015 53.119C32.9333 53.1769 32.9495 53.2752 32.9495 53.4143L32.9409 53.8835C32.9409 53.9695 32.948 54.0236 32.9628 54.0455C32.977 54.0673 33.0078 54.0849 33.0549 54.0977C33.0872 54.1067 33.1034 54.1172 33.1034 54.1281C33.1034 54.1419 33.0953 54.149 33.0796 54.149C33.0734 54.149 33.0667 54.1485 33.0601 54.1476C33.0179 54.139 32.9547 54.1347 32.8716 54.1347C32.797 54.1347 32.7163 54.1381 32.6303 54.1447C32.5961 54.1447 32.579 54.1367 32.579 54.1205C32.579 54.1091 32.5881 54.1015 32.6066 54.0977C32.6574 54.0868 32.6906 54.0749 32.7063 54.063C32.722 54.0512 32.7329 54.035 32.7391 54.0151C32.7458 53.9951 32.7509 53.9282 32.7553 53.8142C32.7595 53.7007 32.7614 53.6081 32.7614 53.5364C32.7614 53.3412 32.7367 53.2111 32.6878 53.1465C32.6384 53.0814 32.5776 53.0491 32.504 53.0491C32.3958 53.0491 32.3055 53.108 32.2338 53.2253C32.1621 53.3427 32.126 53.5388 32.126 53.8123C32.126 53.9367 32.1341 54.016 32.1502 54.0497C32.1664 54.0839 32.2072 54.1044 32.2723 54.112C32.2927 54.1139 32.3027 54.1224 32.3027 54.1381C32.3027 54.1509 32.2927 54.1575 32.2723 54.1575L32.2001 54.1518C32.1745 54.1499 32.089 54.149 31.9441 54.149L31.8335 54.1518C31.7931 54.1518 31.7727 54.1442 31.7727 54.1291C31.7727 54.1129 31.7946 54.1005 31.8387 54.092C31.8805 54.0834 31.909 54.0692 31.9237 54.0483C31.9384 54.0274 31.9484 53.9581 31.9532 53.8403C31.9584 53.723 31.9608 53.5758 31.9608 53.4001C31.9608 53.2363 31.9499 53.1341 31.9275 53.0943C31.9057 53.0544 31.8748 53.0297 31.8349 53.0207C31.7993 53.0121 31.7812 53.0003 31.7812 52.9851C31.7812 52.9689 31.7951 52.9608 31.8226 52.9608L31.9351 52.9622C31.947 52.9622 32.0092 52.9608 32.1218 52.958Z" fill="#4C1363"/>
<path d="M34.301 53.1527C34.3427 53.2192 34.3637 53.2919 34.3637 53.3711C34.3637 53.4903 34.3242 53.592 34.2449 53.676C34.1647 53.7601 34.0502 53.8076 33.9011 53.8185C33.8052 53.8261 33.7397 53.8341 33.705 53.8427C33.6699 53.8517 33.638 53.8693 33.6091 53.8954C33.5801 53.922 33.5659 53.9482 33.5659 53.9743C33.5659 54.0127 33.5882 54.0417 33.6328 54.0602C33.6765 54.0787 33.7691 54.0901 33.9106 54.0949C34.1181 54.1025 34.2563 54.1115 34.3261 54.122C34.396 54.1329 34.4558 54.1652 34.5056 54.2197C34.5555 54.2744 34.5802 54.3442 34.5802 54.4297C34.5802 54.5711 34.518 54.6861 34.3936 54.7744C34.2692 54.8627 34.0854 54.9069 33.8423 54.9069C33.6623 54.9069 33.5269 54.8837 33.4367 54.8371C33.346 54.791 33.3009 54.7217 33.3009 54.6296C33.3009 54.4847 33.4377 54.3669 33.7112 54.2758C33.5962 54.2573 33.5151 54.2321 33.468 54.1998C33.421 54.1675 33.3978 54.1229 33.3978 54.0649C33.3978 54.0056 33.4225 53.9533 33.4714 53.9083C33.5207 53.8632 33.5944 53.8251 33.6931 53.7943C33.6043 53.7681 33.5331 53.7226 33.4789 53.6575C33.4248 53.592 33.3978 53.5155 33.3978 53.4277C33.3978 53.3004 33.4462 53.1897 33.5426 53.0948C33.6395 52.9998 33.762 52.9523 33.9106 52.9523C34.0555 52.9523 34.1733 53.0026 34.2644 53.1038C34.3598 52.995 34.4496 52.9409 34.5332 52.9409C34.5916 52.9409 34.6367 52.9575 34.669 52.9913C34.7008 53.0245 34.717 53.0611 34.717 53.101C34.717 53.1261 34.7075 53.147 34.689 53.1636C34.6705 53.1803 34.6481 53.1888 34.6225 53.1888C34.575 53.1888 34.5375 53.1608 34.5095 53.1052C34.4928 53.0715 34.4729 53.0549 34.4496 53.0549C34.4116 53.0549 34.3623 53.0877 34.301 53.1527ZM33.62 53.383C33.62 53.5198 33.6499 53.6171 33.7097 53.6751C33.7696 53.7325 33.8328 53.7615 33.8997 53.7615C33.9614 53.7615 34.0174 53.732 34.0669 53.6727C34.1167 53.6138 34.1414 53.5231 34.1414 53.4011C34.1414 53.2757 34.1167 53.1784 34.0678 53.1095C34.0185 53.0406 33.9581 53.0064 33.8869 53.0064C33.8081 53.0064 33.7439 53.0397 33.6946 53.1062C33.6447 53.1727 33.62 53.2653 33.62 53.383ZM33.9909 54.2801C33.8945 54.2801 33.8052 54.2957 33.7226 54.3276C33.6399 54.3594 33.5792 54.3974 33.5398 54.4415C33.5003 54.4857 33.4804 54.5384 33.4804 54.6002C33.4804 54.6818 33.5198 54.7445 33.5986 54.7877C33.6775 54.831 33.7762 54.8528 33.895 54.8528C34.0749 54.8528 34.2084 54.8162 34.2958 54.7431C34.3827 54.67 34.4263 54.5902 34.4263 54.5037C34.4263 54.4292 34.3903 54.3731 34.3176 54.3361C34.2454 54.2986 34.1366 54.2801 33.9909 54.2801Z" fill="#4C1363"/>
<path d="M35.5389 53.5878C35.5389 53.4183 35.5935 53.2701 35.7023 53.1428C35.8115 53.0161 35.944 52.9524 36.1007 52.9524C36.2018 52.9524 36.2987 52.9771 36.3913 53.0265C36.4839 53.0759 36.5305 53.1376 36.5305 53.2117C36.5305 53.2407 36.5214 53.2658 36.5038 53.2872C36.4863 53.3091 36.4659 53.32 36.4426 53.32C36.3904 53.32 36.3505 53.2786 36.3225 53.1961C36.2797 53.0697 36.2052 53.0065 36.0988 53.0065C35.9934 53.0065 35.9131 53.0521 35.858 53.1433C35.803 53.234 35.7754 53.3537 35.7754 53.5013C35.7754 53.6752 35.8139 53.8172 35.8908 53.9273C35.9677 54.037 36.0608 54.0921 36.1691 54.0921C36.2408 54.0921 36.3097 54.0641 36.3766 54.0086C36.4421 53.9534 36.4806 53.8865 36.492 53.8077C36.4968 53.7806 36.5067 53.7673 36.5224 53.7673C36.5391 53.7673 36.5476 53.7758 36.5476 53.7925C36.5476 53.8837 36.5058 53.9691 36.4217 54.0489C36.3377 54.1292 36.2251 54.169 36.0841 54.169C35.9302 54.169 35.801 54.1107 35.6961 53.9938C35.5912 53.877 35.5389 53.7416 35.5389 53.5878Z" fill="#4C1363"/>
<path d="M36.7314 53.5683C36.7314 53.4054 36.7903 53.262 36.9081 53.1381C37.0259 53.0141 37.1707 52.9524 37.3426 52.9524C37.5036 52.9524 37.6427 53.008 37.759 53.1191C37.8754 53.2298 37.9338 53.3684 37.9338 53.5351C37.9338 53.7032 37.8726 53.8513 37.75 53.9781C37.6275 54.1054 37.4845 54.169 37.3217 54.169C37.1602 54.169 37.0215 54.1107 36.9052 53.9934C36.7893 53.8765 36.7314 53.735 36.7314 53.5683ZM36.9565 53.5607C36.9565 53.7198 36.9935 53.8518 37.0672 53.9568C37.1412 54.0622 37.2324 54.1149 37.3412 54.1149C37.4404 54.1149 37.5278 54.0655 37.6037 53.9668C37.6793 53.868 37.7173 53.7369 37.7173 53.5731C37.7173 53.4273 37.6807 53.2971 37.6081 53.1832C37.5349 53.0692 37.4404 53.0122 37.3246 53.0122C37.2167 53.0122 37.1284 53.064 37.0596 53.168C36.9907 53.272 36.9565 53.4031 36.9565 53.5607Z" fill="#4C1363"/>
<path d="M38.5046 52.9538C38.5155 52.9889 38.5212 53.0213 38.5212 53.0507C38.5203 53.0944 38.5188 53.1381 38.5169 53.1827C38.5858 53.1053 38.6551 53.0478 38.7254 53.0094C38.7962 52.9714 38.8674 52.9524 38.9396 52.9524C39.0056 52.9524 39.0668 52.9681 39.1234 52.9999C39.1799 53.0312 39.2311 53.0787 39.2777 53.1419C39.3437 53.0783 39.4102 53.0307 39.4771 52.9994C39.5446 52.9681 39.612 52.9524 39.6795 52.9524C39.7697 52.9524 39.8442 52.9709 39.9041 53.008C39.9639 53.045 40.0014 53.0859 40.0161 53.131C40.0309 53.1761 40.0385 53.2578 40.0385 53.3765L40.0328 53.8989C40.0328 53.9749 40.0404 54.0266 40.0561 54.0541C40.0713 54.0812 40.1026 54.095 40.1506 54.095C40.1824 54.095 40.198 54.104 40.198 54.1211C40.198 54.1396 40.1724 54.1491 40.1215 54.1491H39.6937C39.6519 54.1491 39.631 54.1401 39.631 54.1225C39.631 54.1073 39.6429 54.0983 39.6671 54.0964C39.7431 54.0926 39.7901 54.0755 39.8086 54.0442C39.8271 54.0133 39.8362 53.8462 39.8362 53.5432C39.8362 53.4017 39.831 53.2996 39.82 53.2368C39.8096 53.1742 39.7844 53.1234 39.7445 53.0834C39.7046 53.0436 39.6557 53.0236 39.5978 53.0236C39.5465 53.0236 39.4971 53.0393 39.4491 53.0702C39.4012 53.1011 39.3542 53.1476 39.3091 53.2102C39.2711 53.3318 39.2521 53.5455 39.2521 53.8518C39.2521 53.9592 39.2606 54.0271 39.2777 54.0556C39.2953 54.0836 39.3332 54.0978 39.3917 54.0978H39.4154C39.4453 54.0978 39.46 54.1059 39.46 54.1225C39.46 54.1401 39.4415 54.1491 39.4045 54.1491H38.9353C38.8883 54.1491 38.8646 54.1401 38.8646 54.1216C38.8646 54.1031 38.8779 54.0936 38.9049 54.0936C38.961 54.0936 38.9994 54.0817 39.0189 54.0584C39.0388 54.0347 39.0526 53.9668 39.0592 53.8547C39.0664 53.7426 39.0697 53.632 39.0697 53.5228C39.0697 53.3257 39.0502 53.1961 39.0118 53.1338C38.9733 53.0716 38.9173 53.0407 38.8441 53.0407C38.781 53.0407 38.7183 53.0659 38.6565 53.1158C38.5948 53.1656 38.5535 53.2335 38.5322 53.3185C38.5108 53.4036 38.4999 53.5536 38.4999 53.7688C38.4999 53.9207 38.5075 54.0133 38.5222 54.047C38.5369 54.0807 38.5735 54.0978 38.6318 54.0978C38.6551 54.0978 38.6694 54.0992 38.6746 54.1021C38.6798 54.105 38.6822 54.113 38.6822 54.1258C38.6822 54.1415 38.6642 54.1491 38.6281 54.1491H38.1974C38.1466 54.1491 38.1209 54.1396 38.1209 54.1211C38.1209 54.105 38.1304 54.0959 38.1489 54.095C38.1988 54.093 38.233 54.0836 38.251 54.0665C38.2691 54.0494 38.2824 53.9985 38.2909 53.9145C38.2989 53.8305 38.3032 53.6937 38.3032 53.5042C38.3032 53.3147 38.3023 53.2003 38.3 53.1604C38.2975 53.1201 38.2838 53.0882 38.2591 53.064C38.2339 53.0398 38.1912 53.0275 38.1314 53.0265C38.1071 53.0256 38.0953 53.0175 38.0953 53.0023C38.0953 52.9923 38.0986 52.9852 38.1048 52.9814C38.1114 52.9771 38.1532 52.9714 38.2306 52.9638C38.3075 52.9562 38.3759 52.9524 38.4352 52.9524C38.45 52.9524 38.4733 52.9529 38.5046 52.9538Z" fill="#4C1363"/>
<path d="M40.7309 52.9538C40.7418 52.9889 40.7475 53.0213 40.7475 53.0507C40.7465 53.0944 40.7451 53.1381 40.7432 53.1827C40.8121 53.1053 40.8814 53.0478 40.9517 53.0094C41.0225 52.9714 41.0937 52.9524 41.1658 52.9524C41.2319 52.9524 41.2931 52.9681 41.3496 52.9999C41.4061 53.0312 41.4574 53.0787 41.504 53.1419C41.57 53.0783 41.6364 53.0307 41.7034 52.9994C41.7709 52.9681 41.8383 52.9524 41.9057 52.9524C41.9959 52.9524 42.0705 52.9709 42.1303 53.008C42.1902 53.045 42.2277 53.0859 42.2424 53.131C42.2571 53.1761 42.2647 53.2578 42.2647 53.3765L42.259 53.8989C42.259 53.9749 42.2666 54.0266 42.2823 54.0541C42.2975 54.0812 42.3288 54.095 42.3768 54.095C42.4086 54.095 42.4243 54.104 42.4243 54.1211C42.4243 54.1396 42.3986 54.1491 42.3478 54.1491H41.9199C41.8782 54.1491 41.8573 54.1401 41.8573 54.1225C41.8573 54.1073 41.8692 54.0983 41.8933 54.0964C41.9693 54.0926 42.0164 54.0755 42.0349 54.0442C42.0534 54.0133 42.0624 53.8462 42.0624 53.5432C42.0624 53.4017 42.0572 53.2996 42.0463 53.2368C42.0358 53.1742 42.0107 53.1234 41.9708 53.0834C41.9309 53.0436 41.882 53.0236 41.824 53.0236C41.7727 53.0236 41.7233 53.0393 41.6754 53.0702C41.6274 53.1011 41.5804 53.1476 41.5353 53.2102C41.4973 53.3318 41.4783 53.5455 41.4783 53.8518C41.4783 53.9592 41.4869 54.0271 41.504 54.0556C41.5215 54.0836 41.5595 54.0978 41.6179 54.0978H41.6417C41.6716 54.0978 41.6863 54.1059 41.6863 54.1225C41.6863 54.1401 41.6678 54.1491 41.6308 54.1491H41.1616C41.1145 54.1491 41.0908 54.1401 41.0908 54.1216C41.0908 54.1031 41.1041 54.0936 41.1312 54.0936C41.1872 54.0936 41.2257 54.0817 41.2452 54.0584C41.2651 54.0347 41.2789 53.9668 41.2855 53.8547C41.2926 53.7426 41.296 53.632 41.296 53.5228C41.296 53.3257 41.2765 53.1961 41.238 53.1338C41.1995 53.0716 41.1435 53.0407 41.0704 53.0407C41.0073 53.0407 40.9445 53.0659 40.8828 53.1158C40.8211 53.1656 40.7798 53.2335 40.7584 53.3185C40.737 53.4036 40.7261 53.5536 40.7261 53.7688C40.7261 53.9207 40.7337 54.0133 40.7485 54.047C40.7631 54.0807 40.7997 54.0978 40.8581 54.0978C40.8814 54.0978 40.8957 54.0992 40.9008 54.1021C40.9061 54.105 40.9084 54.113 40.9084 54.1258C40.9084 54.1415 40.8904 54.1491 40.8543 54.1491H40.4236C40.3728 54.1491 40.3472 54.1396 40.3472 54.1211C40.3472 54.105 40.3567 54.0959 40.3752 54.095C40.425 54.093 40.4592 54.0836 40.4773 54.0665C40.4953 54.0494 40.5086 53.9985 40.5172 53.9145C40.5252 53.8305 40.5295 53.6937 40.5295 53.5042C40.5295 53.3147 40.5286 53.2003 40.5262 53.1604C40.5238 53.1201 40.5101 53.0882 40.4854 53.064C40.4602 53.0398 40.4174 53.0275 40.3576 53.0265C40.3334 53.0256 40.3215 53.0175 40.3215 53.0023C40.3215 52.9923 40.3248 52.9852 40.331 52.9814C40.3377 52.9771 40.3794 52.9714 40.4568 52.9638C40.5338 52.9562 40.6021 52.9524 40.6615 52.9524C40.6762 52.9524 40.6995 52.9529 40.7309 52.9538Z" fill="#4C1363"/>
<path d="M42.9153 52.981C42.9196 53.0413 42.9234 53.2156 42.9267 53.5039C42.9286 53.6834 42.9334 53.803 42.9405 53.8629C42.948 53.9227 42.9713 53.9721 43.0108 54.011C43.0506 54.0499 43.0958 54.0694 43.1466 54.0694C43.2135 54.0694 43.2805 54.0386 43.3479 53.9768C43.4153 53.9146 43.4567 53.8486 43.4728 53.7779C43.4885 53.7071 43.496 53.5446 43.496 53.2902C43.496 53.1719 43.489 53.1002 43.4742 53.0755C43.459 53.0504 43.4229 53.0361 43.3659 53.0323C43.3446 53.0313 43.3337 53.0228 43.3337 53.0071C43.3337 52.9966 43.337 52.9895 43.3437 52.9862C43.3502 52.9829 43.3707 52.981 43.4058 52.981H43.6832C43.6917 53.0826 43.6955 53.1961 43.6955 53.3215L43.6846 53.8467C43.6846 53.9545 43.6937 54.0224 43.7117 54.0504C43.7297 54.0785 43.7582 54.0941 43.7967 54.0979C43.8209 54.1017 43.8328 54.1102 43.8328 54.125C43.8328 54.1411 43.809 54.1492 43.762 54.1492H43.5431C43.5056 54.1492 43.4865 54.1364 43.4865 54.1112C43.4865 54.1036 43.487 54.0956 43.488 54.0861C43.4909 54.058 43.4923 54.0295 43.4923 54.0001C43.4923 53.9759 43.4909 53.9403 43.488 53.8937C43.4172 53.9844 43.3441 54.0528 43.2681 54.0979C43.1921 54.1435 43.1129 54.1663 43.0302 54.1663C42.9599 54.1663 42.9006 54.1492 42.8531 54.115C42.8051 54.0803 42.7738 54.039 42.7581 53.9901C42.7429 53.9417 42.7324 53.8201 42.7273 53.6264C42.7215 53.4326 42.7187 53.2801 42.7187 53.17C42.7187 53.1097 42.7153 53.0722 42.7092 53.0574C42.7026 53.0428 42.6826 53.0342 42.6484 53.0323C42.6118 53.0294 42.5933 53.0204 42.5933 53.0047C42.5933 52.989 42.6157 52.981 42.6598 52.981H42.9153Z" fill="#4C1363"/>
<path d="M44.3793 52.958C44.4021 53.0126 44.4159 53.1043 44.4207 53.2339C44.4781 53.1427 44.5417 53.0743 44.6115 53.0292C44.6818 52.9837 44.7578 52.9608 44.8404 52.9608C44.9031 52.9608 44.9639 52.9727 45.0228 52.9964C45.0817 53.0202 45.1272 53.0606 45.1591 53.119C45.1909 53.1769 45.2071 53.2752 45.2071 53.4143L45.1985 53.8835C45.1985 53.9695 45.2056 54.0236 45.2203 54.0455C45.2346 54.0673 45.2654 54.0849 45.3125 54.0977C45.3448 54.1067 45.3609 54.1172 45.3609 54.1281C45.3609 54.1419 45.3528 54.149 45.3372 54.149C45.331 54.149 45.3243 54.1485 45.3176 54.1476C45.2754 54.139 45.2122 54.1347 45.1291 54.1347C45.0546 54.1347 44.9738 54.1381 44.8879 54.1447C44.8537 54.1447 44.8366 54.1367 44.8366 54.1205C44.8366 54.1091 44.8456 54.1015 44.8641 54.0977C44.9149 54.0868 44.9482 54.0749 44.9639 54.063C44.9796 54.0512 44.9905 54.035 44.9967 54.0151C45.0033 53.9951 45.0085 53.9282 45.0128 53.8142C45.0171 53.7007 45.019 53.6081 45.019 53.5364C45.019 53.3412 44.9943 53.2111 44.9454 53.1465C44.896 53.0814 44.8352 53.0491 44.7616 53.0491C44.6533 53.0491 44.5631 53.108 44.4914 53.2253C44.4196 53.3427 44.3836 53.5388 44.3836 53.8123C44.3836 53.9367 44.3916 54.016 44.4078 54.0497C44.4239 54.0839 44.4648 54.1044 44.5298 54.112C44.5503 54.1139 44.5602 54.1224 44.5602 54.1381C44.5602 54.1509 44.5503 54.1575 44.5298 54.1575L44.4577 54.1518C44.432 54.1499 44.3465 54.149 44.2017 54.149L44.0911 54.1518C44.0507 54.1518 44.0303 54.1442 44.0303 54.1291C44.0303 54.1129 44.0521 54.1005 44.0963 54.092C44.1381 54.0834 44.1666 54.0692 44.1813 54.0483C44.196 54.0274 44.206 53.9581 44.2107 53.8403C44.216 53.723 44.2183 53.5758 44.2183 53.4001C44.2183 53.2363 44.2074 53.1341 44.1851 53.0943C44.1633 53.0544 44.1324 53.0297 44.0925 53.0207C44.0569 53.0121 44.0388 53.0003 44.0388 52.9851C44.0388 52.9689 44.0526 52.9608 44.0801 52.9608L44.1927 52.9622C44.2045 52.9622 44.2668 52.9608 44.3793 52.958Z" fill="#4C1363"/>
<path d="M45.7836 52.2742C45.8192 52.2742 45.8505 52.287 45.8785 52.3131C45.9065 52.3392 45.9203 52.3677 45.9203 52.3981C45.9203 52.4342 45.9089 52.4655 45.8861 52.4916C45.8633 52.5178 45.832 52.5306 45.7921 52.5306C45.7565 52.5306 45.7251 52.5192 45.6971 52.4964C45.6691 52.4736 45.6553 52.4428 45.6553 52.4038C45.6553 52.3659 45.6672 52.3345 45.6909 52.3103C45.7147 52.286 45.7456 52.2742 45.7836 52.2742ZM45.9374 52.9523L45.9346 53.2667L45.9374 53.5601V53.7805V53.9486C45.9374 54.0155 45.9483 54.0578 45.9697 54.0764C45.9915 54.0944 46.0238 54.1044 46.067 54.1063C46.1174 54.1091 46.1426 54.1191 46.1426 54.1367C46.1426 54.1504 46.1331 54.1575 46.1136 54.1575C46.106 54.1575 46.0979 54.1571 46.0885 54.1561C46.0025 54.1457 45.9222 54.1405 45.8482 54.1405C45.7299 54.1405 45.6477 54.1442 45.6026 54.1518C45.5931 54.1538 45.5841 54.1547 45.5746 54.1547C45.5523 54.1547 45.5414 54.1466 45.5414 54.1305C45.5414 54.1143 45.5675 54.103 45.6193 54.0963C45.6715 54.0901 45.7047 54.0787 45.7189 54.0626C45.7337 54.046 45.7408 53.9999 45.7408 53.9235L45.7494 53.346C45.7494 53.1916 45.738 53.1 45.7147 53.0715C45.6914 53.0435 45.6468 53.0283 45.5803 53.0264C45.558 53.0264 45.547 53.0188 45.547 53.0031C45.547 52.9941 45.5509 52.9874 45.558 52.9822C45.5655 52.9775 45.6207 52.9713 45.7232 52.9642C45.8263 52.9571 45.8975 52.9532 45.9374 52.9523Z" fill="#4C1363"/>
<path d="M46.7205 53.0833C46.7081 53.2885 46.702 53.4899 46.702 53.6874C46.702 53.8399 46.7201 53.9391 46.7566 53.9852C46.7931 54.0317 46.8454 54.055 46.9138 54.055C46.9632 54.055 47.0183 54.0369 47.0781 54.0004C47.0995 53.9875 47.1128 53.9809 47.1175 53.9809C47.1299 53.9809 47.136 53.9875 47.136 54.0004C47.136 54.0222 47.1028 54.0573 47.0368 54.1053C46.9703 54.1532 46.8896 54.1775 46.7932 54.1775C46.6982 54.1775 46.627 54.1448 46.5795 54.0787C46.532 54.0132 46.5082 53.9149 46.5082 53.7843C46.5082 53.648 46.5168 53.4144 46.5339 53.0833C46.5272 53.0815 46.4835 53.0786 46.4024 53.0743L46.3192 53.0691C46.2988 53.0682 46.2888 53.0611 46.2888 53.0482C46.2888 53.0359 46.3003 53.0264 46.323 53.0188C46.3606 53.005 46.4237 52.9637 46.5125 52.8958C46.6013 52.8279 46.6531 52.7319 46.6678 52.608C46.6716 52.5752 46.682 52.5591 46.6991 52.5591C46.7162 52.5591 46.7248 52.5719 46.7248 52.5981C46.7248 52.6066 46.7243 52.6152 46.7234 52.6246C46.7205 52.6607 46.7191 52.7025 46.7191 52.7495L46.7205 52.9666L47.0235 52.9637C47.0752 52.9637 47.1018 52.9699 47.1038 52.9818C47.1028 53.025 47.0962 53.052 47.0828 53.0634C47.0349 53.0634 46.9142 53.0701 46.7205 53.0833Z" fill="#4C1363"/>
<path d="M47.505 52.2742C47.5406 52.2742 47.572 52.287 47.6 52.3131C47.628 52.3392 47.6418 52.3677 47.6418 52.3981C47.6418 52.4342 47.6304 52.4655 47.6076 52.4916C47.5847 52.5178 47.5534 52.5306 47.5135 52.5306C47.4779 52.5306 47.4466 52.5192 47.4186 52.4964C47.3906 52.4736 47.3768 52.4428 47.3768 52.4038C47.3768 52.3659 47.3886 52.3345 47.4124 52.3103C47.4361 52.286 47.467 52.2742 47.505 52.2742ZM47.6588 52.9523L47.656 53.2667L47.6588 53.5601V53.7805V53.9486C47.6588 54.0155 47.6698 54.0578 47.6912 54.0764C47.713 54.0944 47.7453 54.1044 47.7885 54.1063C47.8388 54.1091 47.864 54.1191 47.864 54.1367C47.864 54.1504 47.8545 54.1575 47.8351 54.1575C47.8275 54.1575 47.8194 54.1571 47.8099 54.1561C47.7239 54.1457 47.6436 54.1405 47.5696 54.1405C47.4513 54.1405 47.3692 54.1442 47.3241 54.1518C47.3146 54.1538 47.3056 54.1547 47.2961 54.1547C47.2737 54.1547 47.2628 54.1466 47.2628 54.1305C47.2628 54.1143 47.2889 54.103 47.3407 54.0963C47.3929 54.0901 47.4262 54.0787 47.4404 54.0626C47.4551 54.046 47.4622 53.9999 47.4622 53.9235L47.4708 53.346C47.4708 53.1916 47.4594 53.1 47.4361 53.0715C47.4128 53.0435 47.3682 53.0283 47.3017 53.0264C47.2794 53.0264 47.2685 53.0188 47.2685 53.0031C47.2685 52.9941 47.2723 52.9874 47.2794 52.9822C47.287 52.9775 47.3421 52.9713 47.4447 52.9642C47.5477 52.9571 47.6189 52.9532 47.6588 52.9523Z" fill="#4C1363"/>
<path d="M48.241 53.4995C48.2373 53.5465 48.2354 53.584 48.2354 53.612C48.2354 53.7431 48.2743 53.8542 48.3517 53.9449C48.4296 54.0356 48.5256 54.0807 48.64 54.0807C48.752 54.0807 48.8556 54.0361 48.9515 53.9473C48.9795 53.9221 48.9971 53.9098 49.0047 53.9098C49.0194 53.9098 49.0275 53.9216 49.0284 53.9458C48.9928 54.0109 48.9325 54.066 48.847 54.1107C48.7615 54.1553 48.6666 54.1776 48.5616 54.1776C48.4078 54.1776 48.2772 54.1221 48.1703 54.0114C48.0635 53.9003 48.0103 53.7597 48.0103 53.5902C48.0103 53.4083 48.0687 53.2564 48.186 53.1347C48.3033 53.0132 48.4286 52.9524 48.5621 52.9524C48.6874 52.9524 48.8005 52.9999 48.9016 53.0954C49.0028 53.1908 49.0531 53.3024 49.0531 53.4311C49.0531 53.4505 49.0503 53.4648 49.0441 53.4743C49.0379 53.4833 49.0023 53.4881 48.9377 53.4881L48.241 53.4995ZM48.241 53.4283C48.3617 53.4339 48.479 53.4368 48.5925 53.4368L48.6666 53.4325C48.7222 53.4306 48.7649 53.4197 48.7948 53.3997C48.8247 53.3793 48.8394 53.3442 48.8394 53.2938C48.8394 53.2155 48.8128 53.1467 48.7592 53.0882C48.7055 53.0298 48.6428 53.0009 48.5702 53.0009C48.5032 53.0009 48.4362 53.0341 48.3697 53.1011C48.3033 53.168 48.2606 53.2768 48.241 53.4283Z" fill="#4C1363"/>
<path d="M50.1221 53.782C50.1221 53.8894 50.0822 53.9814 50.0024 54.0589C49.9232 54.1363 49.8287 54.1748 49.7194 54.1748C49.6543 54.1748 49.5769 54.1539 49.4872 54.1116C49.4383 54.0893 49.4089 54.0779 49.3998 54.0779C49.3842 54.0779 49.3699 54.0879 49.3581 54.1083C49.3433 54.1353 49.3295 54.1491 49.3163 54.1491C49.3053 54.1491 49.2987 54.1358 49.2958 54.1092C49.293 54.0826 49.2911 54.0218 49.2901 53.9278C49.2887 53.8466 49.2868 53.7939 49.2844 53.7706C49.2844 53.736 49.2934 53.7189 49.3115 53.7189C49.3219 53.7189 49.33 53.7279 49.3357 53.7455C49.3718 53.8513 49.4221 53.9416 49.4877 54.0152C49.5527 54.0893 49.6292 54.1263 49.7171 54.1263C49.7788 54.1263 49.8338 54.1073 49.8818 54.0689C49.9298 54.0304 49.954 53.9781 49.954 53.9126C49.954 53.811 49.8657 53.7208 49.689 53.642C49.5679 53.5868 49.4867 53.547 49.4464 53.5218C49.4055 53.4966 49.3737 53.4629 49.3504 53.4202C49.3272 53.3774 49.3158 53.3309 49.3158 53.2811C49.3158 53.1851 49.3519 53.1053 49.4245 53.0407C49.4967 52.9762 49.5845 52.9438 49.6876 52.9438C49.764 52.9438 49.8476 52.9676 49.9383 53.0151C49.9535 53.0227 49.9664 53.0265 49.9777 53.0265C49.9868 53.0265 49.9972 53.0184 50.0082 53.0027C50.0191 52.988 50.0276 52.9809 50.0338 52.9809C50.0419 52.9809 50.048 52.9842 50.0528 52.9914C50.057 52.9985 50.0623 53.0398 50.068 53.1148C50.0737 53.1903 50.0766 53.252 50.0766 53.3005C50.0766 53.3304 50.0685 53.3456 50.0528 53.3456C50.039 53.3456 50.0281 53.3323 50.0195 53.3052C50.0119 53.28 49.9896 53.2326 49.9526 53.1623C49.9156 53.0915 49.8752 53.0464 49.831 53.027C49.7869 53.0075 49.7437 52.998 49.7009 52.998C49.6339 52.998 49.5793 53.0141 49.5366 53.0464C49.4938 53.0792 49.4725 53.121 49.4725 53.1732C49.4725 53.2055 49.4815 53.235 49.4991 53.2606C49.5166 53.2867 49.5328 53.3062 49.5485 53.319C49.5637 53.3318 49.652 53.3751 49.8135 53.4477C49.9137 53.4928 49.9792 53.5279 50.011 53.5526C50.0424 53.5769 50.0689 53.6101 50.0903 53.6514C50.1117 53.6932 50.1221 53.7369 50.1221 53.782Z" fill="#4C1363"/>
</g>
<defs>
<clipPath id="clip0_24_219">
<rect width="52" height="55.0274" fill="white"/>
</clipPath>
</defs>
</svg>
